{"glyphs":{"0":{"ha":701,"x_min":0,"x_max":0,"o":"m 276 29 l 231 39 l 103 165 l 85 203 l 42 476 l 42 561 l 54 685 l 54 735 l 67 808 l 79 833 l 79 871 l 103 896 l 165 982 l 171 994 l 276 1106 l 307 1106 l 369 1075 l 463 1007 l 475 994 l 499 982 l 543 939 l 572 915 l 579 896 l 619 843 l 646 722 l 660 289 l 647 276 l 622 268 l 604 233 l 599 215 l 442 7 l 413 -8 l 351 -8 m 363 22 l 383 22 l 465 133 l 499 233 l 499 289 l 488 339 l 488 617 l 481 679 l 481 735 l 475 803 l 475 942 l 318 1063 l 301 1063 l 301 1019 l 294 1013 l 200 839 l 208 692 l 208 592 l 215 499 l 215 369 l 233 314 l 233 251 l 246 171 l 246 158 l 254 132 l 314 57 l 357 29 "},"1":{"ha":585,"x_min":0,"x_max":0,"o":"m 146 57 l 238 67 l 250 933 l 117 779 l 85 760 l 49 760 l 42 814 l 42 883 l 60 903 l 103 903 l 103 875 l 90 861 l 90 828 l 289 1074 l 339 1074 l 365 1058 l 394 1049 l 401 1025 l 419 583 l 414 549 l 414 536 l 407 467 l 414 407 l 414 188 l 407 167 l 407 119 l 400 79 l 532 79 l 543 65 l 543 31 l 407 31 l 383 17 l 135 17 l 117 26 "},"2":{"ha":653,"x_min":0,"x_max":0,"o":"m 88 124 l 121 263 l 389 971 l 325 978 l 239 978 l 146 871 l 108 817 l 74 779 l 103 735 l 157 693 l 189 693 l 204 754 l 226 754 l 226 713 l 221 699 l 208 653 l 189 631 l 167 631 l 115 672 l 64 735 l 58 775 l 42 793 l 72 872 l 201 1022 l 288 1049 l 350 1049 l 469 1024 l 549 978 l 567 939 l 536 829 l 529 817 l 499 721 l 486 699 l 475 658 l 454 618 l 436 557 l 418 536 l 406 508 l 375 454 l 325 338 l 257 215 l 251 194 l 232 153 l 232 126 l 518 126 l 536 147 l 581 351 l 599 351 l 604 338 l 593 249 l 593 131 l 611 99 l 611 79 l 599 65 l 194 65 l 176 57 l 139 57 l 111 75 "},"3":{"ha":617,"x_min":0,"x_max":0,"o":"m 203 63 l 110 126 l 72 147 l 72 235 l 85 290 l 90 303 l 90 311 l 121 396 l 160 440 l 185 454 l 260 419 l 311 383 l 325 339 l 296 317 l 283 283 l 257 254 l 215 276 l 215 303 l 231 349 l 221 358 l 185 379 l 163 379 l 147 338 l 126 200 l 135 181 l 232 113 l 314 85 l 396 85 l 396 229 l 414 481 l 428 561 l 414 576 l 364 576 l 347 568 l 303 618 l 321 658 l 371 721 l 364 1007 l 349 1024 l 246 1011 l 185 986 l 75 922 l 64 899 l 106 835 l 154 808 l 165 808 l 165 876 l 182 894 l 190 876 l 185 836 l 185 761 l 160 761 l 96 790 l 54 885 l 42 904 l 54 944 l 103 1000 l 219 1064 l 369 1086 l 428 1071 l 483 1021 l 514 967 l 519 932 l 532 899 l 532 761 l 514 754 l 469 707 l 463 693 l 439 679 l 426 653 l 408 639 l 408 631 l 490 615 l 575 574 l 575 543 l 557 325 l 557 290 l 550 263 l 550 221 l 532 161 l 513 35 l 475 24 l 347 24 "},"5":{"ha":603,"x_min":0,"x_max":0,"o":"m 182 38 l 113 113 l 75 228 l 75 272 l 119 306 l 131 318 l 154 318 l 272 342 l 283 331 l 269 292 l 258 235 l 243 210 l 204 231 l 197 246 l 197 283 l 138 264 l 138 228 l 169 157 l 214 99 l 246 72 l 265 72 l 368 199 l 343 350 l 343 628 l 269 642 l 258 642 l 79 669 l 58 693 l 42 929 l 51 1029 l 51 1061 l 88 1068 l 500 1089 l 561 1078 l 561 1038 l 524 1018 l 471 900 l 458 861 l 446 849 l 365 897 l 349 931 l 349 957 l 374 1000 l 403 979 l 403 931 l 415 931 l 463 1049 l 203 1040 l 203 888 l 192 776 l 197 744 l 392 681 l 428 674 l 494 651 l 514 324 l 514 286 l 519 246 l 514 221 l 331 39 l 306 21 l 288 1 l 258 1 l 208 26 "},"6":{"ha":650,"x_min":0,"x_max":0,"o":"m 53 260 l 42 382 l 75 617 l 161 910 l 242 1093 l 269 1126 l 400 1113 l 442 1090 l 503 1082 l 531 1064 l 514 1011 l 490 958 l 468 883 l 421 883 l 397 938 l 397 965 l 446 979 l 461 1032 l 429 1054 l 389 1088 l 318 1096 l 311 1054 l 299 1029 l 290 958 l 279 932 l 226 719 l 236 719 l 326 781 l 354 781 l 378 754 l 550 606 l 578 596 l 608 563 l 608 549 l 601 535 l 565 317 l 503 132 l 496 118 l 478 44 l 440 -4 l 408 -4 l 115 190 m 390 64 l 390 99 l 456 576 l 435 624 l 354 713 l 324 729 l 282 714 l 214 657 l 196 572 l 206 503 l 199 481 l 199 426 l 206 392 l 206 364 l 229 268 l 272 153 l 290 135 l 372 85 "},"7":{"ha":640,"x_min":0,"x_max":0,"o":"m 106 -6 l 135 6 l 229 399 l 329 679 l 342 707 l 347 726 l 465 992 l 290 992 l 142 1014 l 81 1029 l 104 963 l 113 865 l 142 890 l 174 890 l 179 876 l 167 857 l 154 829 l 119 790 l 69 778 l 61 794 l 61 939 l 49 1035 l 42 1051 l 54 1079 l 564 1040 l 583 1026 l 599 994 l 589 967 l 565 932 l 533 808 l 526 794 l 471 631 l 460 604 l 303 133 l 290 106 l 285 71 l 272 44 l 272 15 l 328 -29 l 249 -37 l 224 -37 l 163 -51 l 106 -25 "},"8":{"ha":736,"x_min":0,"x_max":0,"o":"m 147 60 l 121 85 l 42 379 l 42 514 l 76 604 l 115 646 l 192 740 l 214 749 l 229 749 l 193 800 l 178 808 l 132 856 l 119 938 l 128 968 l 189 1089 l 225 1138 l 250 1142 l 264 1150 l 394 1129 l 461 1106 l 588 1022 l 596 994 l 522 703 l 501 682 l 456 694 l 431 733 l 431 821 l 460 1057 l 411 1083 l 347 1090 l 338 1072 l 321 1064 l 313 1019 l 307 1001 l 307 994 l 276 915 l 276 840 l 363 749 l 368 731 l 407 692 l 449 658 l 518 594 l 547 571 l 585 524 l 603 490 l 640 453 l 647 439 l 671 413 l 694 363 l 578 39 l 565 14 l 565 -3 l 538 -18 l 197 29 m 478 32 l 499 51 l 488 75 l 553 349 l 535 368 l 524 388 l 240 726 l 225 704 l 185 658 l 174 635 l 201 586 l 214 482 l 207 439 l 207 421 l 219 394 l 276 213 l 276 168 l 313 60 "},"9":{"ha":688,"x_min":0,"x_max":0,"o":"m 194 74 l 194 97 l 219 153 l 257 210 l 269 233 l 306 253 l 343 253 l 396 215 l 439 129 l 381 129 l 346 150 l 321 188 l 275 119 l 275 94 l 386 74 l 442 74 l 467 85 l 528 172 l 507 413 l 507 524 l 499 539 l 426 493 l 333 450 l 246 450 l 215 481 l 178 543 l 142 592 l 135 604 l 110 629 l 42 722 l 42 783 l 110 926 l 197 1063 l 208 1085 l 314 1118 l 371 1118 l 382 1111 l 419 1106 l 426 1100 l 482 1075 l 531 1043 l 543 1038 l 611 988 l 636 957 l 629 950 l 636 821 l 636 703 l 646 574 l 631 413 l 569 139 l 467 29 l 431 17 l 368 17 l 214 54 m 326 493 l 339 493 l 482 586 l 513 601 l 513 1003 l 394 1063 l 376 1063 l 350 1028 l 339 994 l 321 957 l 235 735 l 253 660 "}," ":{"ha":431,"x_min":0,"x_max":0,"o":""},"!":{"ha":267,"x_min":0,"x_max":0,"o":"m 43 1093 l 139 1111 l 225 1094 l 214 1071 l 183 1064 l 196 982 l 192 931 l 203 893 l 197 828 l 201 788 l 199 757 l 201 703 l 200 685 l 201 636 l 181 356 l 64 339 l 56 444 l 53 613 l 56 651 l 60 997 l 78 1072 l 42 1082 m 119 204 l 178 176 l 197 115 l 197 90 l 176 63 l 161 54 l 151 42 l 122 26 l 81 31 l 56 99 l 60 140 l 68 160 "},"\"":{"ha":367,"x_min":0,"x_max":0,"o":"m 71 768 l 71 807 l 42 1139 l 82 1204 l 110 1199 l 157 1153 l 157 1119 l 146 1067 l 117 863 l 117 814 l 104 775 l 104 728 l 89 715 l 78 728 m 250 769 l 239 801 l 203 1075 l 222 1175 l 278 1193 l 325 1147 l 325 1114 l 314 1061 l 285 857 l 275 821 l 278 739 "},"$":{"ha":714,"x_min":0,"x_max":0,"o":"m 347 1186 l 343 1110 l 549 1065 l 672 1018 l 664 1003 l 646 985 l 567 774 l 543 774 l 488 829 l 464 867 l 432 903 l 438 917 l 469 917 l 469 890 l 497 864 l 506 872 l 518 922 l 550 1013 l 342 1058 l 331 810 l 519 622 l 590 539 l 621 510 l 621 460 l 506 106 l 506 56 l 482 32 l 443 32 l 346 56 l 299 82 l 294 0 l 269 -6 l 274 94 l 238 118 l 188 142 l 126 186 l 61 222 l 53 251 l 65 297 l 132 440 l 147 456 l 244 489 l 289 458 l 292 539 l 263 625 l 196 675 l 163 731 l 42 899 l 78 971 l 121 1033 l 144 1078 l 175 1108 l 261 1129 l 317 1117 l 319 1186 m 318 513 l 303 185 l 322 174 l 364 154 l 386 140 l 429 394 l 417 419 l 376 453 m 193 249 l 278 199 l 286 397 l 274 372 l 247 346 l 222 354 l 194 390 l 181 390 l 144 297 l 144 269 m 251 889 l 304 835 l 314 1065 l 297 1069 l 286 1047 "},"'":{"ha":199,"x_min":0,"x_max":0,"o":"m 71 768 l 71 807 l 42 1139 l 82 1204 l 110 1199 l 157 1153 l 157 1119 l 146 1067 l 117 863 l 117 814 l 104 775 l 104 728 l 89 715 l 78 728 "},"(":{"ha":413,"x_min":0,"x_max":0,"o":"m 163 89 l 58 450 l 51 525 l 42 576 l 74 729 l 140 921 l 204 1047 l 254 1089 l 278 1096 l 300 1096 l 311 1085 l 317 1051 l 340 968 l 328 956 l 311 956 l 283 983 l 290 996 l 282 1031 l 263 1021 l 235 956 l 211 729 l 211 508 l 217 457 l 217 429 l 239 338 l 239 310 l 283 75 l 322 94 l 371 94 l 311 19 l 283 -1 l 210 -1 "},")":{"ha":413,"x_min":0,"x_max":0,"o":"m 203 -1 l 129 -1 l 101 19 l 42 94 l 90 94 l 129 75 l 174 310 l 174 338 l 196 429 l 196 457 l 201 508 l 201 729 l 178 956 l 150 1021 l 131 1031 l 122 996 l 129 983 l 101 956 l 85 956 l 72 968 l 96 1051 l 101 1085 l 113 1096 l 135 1096 l 158 1089 l 208 1047 l 272 921 l 339 729 l 371 576 l 361 525 l 354 450 l 250 89 "},",":{"ha":258,"x_min":0,"x_max":0,"o":"m 72 0 l 85 6 l 111 -3 l 126 32 l 61 76 l 42 124 l 85 176 l 133 176 l 217 113 l 126 -60 l 110 -60 l 72 -14 "},"-":{"ha":601,"x_min":0,"x_max":0,"o":"m 42 450 l 50 465 l 472 481 l 511 475 l 519 483 l 546 467 l 560 432 l 560 390 l 525 390 l 507 385 l 497 385 l 393 375 l 299 375 l 260 369 l 211 369 l 175 360 l 163 360 l 81 351 l 58 378 "},".":{"ha":235,"x_min":0,"x_max":0,"o":"m 54 63 l 42 107 l 99 171 l 138 171 l 179 138 l 193 106 l 193 86 l 144 32 l 126 0 l 101 0 "},"/":{"ha":322,"x_min":0,"x_max":0,"o":"m 47 13 l 42 25 l 42 76 l 196 983 l 226 1111 l 272 1100 l 281 1067 l 281 1039 l 221 742 l 221 736 l 203 653 l 200 644 l 161 428 l 156 417 l 117 174 l 108 154 l 108 124 l 88 -6 l 76 -6 l 64 6 "},":":{"ha":235,"x_min":0,"x_max":0,"o":"m 54 63 l 42 107 l 99 171 l 138 171 l 179 138 l 193 106 l 193 86 l 144 32 l 126 0 l 101 0 m 54 671 l 42 715 l 99 779 l 138 779 l 179 746 l 193 714 l 193 694 l 144 640 l 126 608 l 101 608 "},";":{"ha":235,"x_min":0,"x_max":0,"o":"m 72 0 l 85 6 l 111 -3 l 126 32 l 61 76 l 42 124 l 85 176 l 133 176 l 217 113 l 126 -60 l 110 -60 l 72 -14 m 54 671 l 42 715 l 99 779 l 138 779 l 179 746 l 193 714 l 193 694 l 144 640 l 126 608 l 101 608 "},"?":{"ha":621,"x_min":0,"x_max":0,"o":"m 244 222 l 222 376 l 235 450 l 235 485 l 253 526 l 269 547 l 404 760 l 404 876 l 422 1014 l 374 1022 l 207 1022 l 186 989 l 179 981 l 149 914 l 88 799 l 99 758 l 143 740 l 149 750 l 149 785 l 138 799 l 157 807 l 217 799 l 217 754 l 186 703 l 178 685 l 156 669 l 72 700 l 42 781 l 42 826 l 128 1010 l 164 1050 l 247 1069 l 392 1069 l 521 1047 l 557 1026 l 579 979 l 547 689 l 531 669 l 515 660 l 507 622 l 489 613 l 476 581 l 464 574 l 458 554 l 428 518 l 382 415 l 392 268 l 399 232 l 367 214 l 313 200 l 235 200 l 218 210 m 260 44 l 260 113 l 338 128 l 386 118 l 392 113 l 424 89 l 415 71 l 404 15 l 374 3 l 332 3 l 279 18 "},"@":{"ha":865,"x_min":0,"x_max":0,"o":"m 200 424 l 183 458 l 199 494 l 242 572 l 290 646 l 339 699 l 358 699 l 463 658 l 471 667 l 472 754 l 485 878 l 350 897 l 322 850 l 310 806 l 308 757 l 342 794 l 350 819 l 386 779 l 386 742 l 350 742 l 300 706 l 286 706 l 281 721 l 281 779 l 338 933 l 536 911 l 576 897 l 600 872 l 589 858 l 608 353 l 631 307 l 699 418 l 694 597 l 650 869 l 582 999 l 536 1044 l 482 1071 l 321 1071 l 206 972 l 167 853 l 175 236 l 244 151 l 267 131 l 393 72 l 428 72 l 610 164 l 632 114 l 467 39 l 388 39 l 336 49 l 225 106 l 131 174 l 93 228 l 76 303 l 76 342 l 42 767 l 69 861 l 81 908 l 194 1054 l 260 1103 l 390 1113 l 500 1099 l 635 1043 l 644 1025 l 678 972 l 690 946 l 697 939 l 731 861 l 797 761 l 824 539 l 803 467 l 649 288 l 617 286 l 581 299 l 508 375 l 426 296 l 400 282 l 393 265 l 364 276 m 368 296 l 379 296 l 497 403 l 485 449 l 485 464 l 471 583 l 460 593 l 442 593 l 401 599 l 351 583 l 310 549 l 310 499 l 358 307 "},"A":{"ha":788,"x_min":0,"x_max":0,"o":"m 200 46 l 201 99 l 215 151 l 215 192 l 221 218 l 239 361 l 228 371 l 85 390 l 103 354 l 128 338 l 200 326 l 217 310 l 189 244 l 135 244 l 82 299 l 61 358 l 42 399 l 42 425 l 82 425 l 239 403 l 249 411 l 369 1085 l 288 1085 l 263 1110 l 382 1124 l 401 1138 l 492 1144 l 554 1124 l 575 1104 l 575 1090 l 618 993 l 635 911 l 635 897 l 681 592 l 701 225 l 701 211 l 718 17 l 746 3 l 714 -8 l 594 -15 l 575 -22 l 488 -22 l 463 -4 l 482 6 l 526 13 l 515 58 l 492 106 l 468 299 l 454 342 l 322 358 l 279 158 l 260 118 l 260 51 l 328 44 l 339 32 l 272 18 l 267 18 l 125 -8 l 89 11 m 394 378 l 454 378 l 428 697 l 428 718 l 408 890 l 401 885 l 328 407 l 336 388 "},"B":{"ha":743,"x_min":0,"x_max":0,"o":"m 215 18 l 94 38 l 46 69 l 56 78 l 78 131 l 110 140 l 136 128 l 121 74 l 149 65 l 196 65 l 188 332 l 208 625 l 217 631 l 229 1061 l 153 1042 l 135 1024 l 135 1011 l 182 985 l 182 971 l 163 951 l 101 951 l 63 971 l 42 990 l 42 1018 l 78 1054 l 260 1118 l 449 1118 l 515 1085 l 547 1074 l 556 1051 l 542 1031 l 515 957 l 453 832 l 508 792 l 589 711 l 660 658 l 682 625 l 701 558 l 701 411 l 694 318 l 694 299 l 682 218 l 675 204 l 665 161 l 642 111 l 635 92 l 594 51 l 556 39 l 372 6 l 256 6 m 518 61 l 535 78 l 535 104 l 542 158 l 542 351 l 549 385 l 549 525 l 558 663 l 422 778 l 415 771 l 415 658 l 408 611 l 408 444 l 428 238 l 428 151 l 421 136 l 429 82 l 418 49 m 389 897 l 464 1063 l 415 1090 l 368 1090 l 368 978 l 382 904 "},"C":{"ha":596,"x_min":0,"x_max":0,"o":"m 56 356 l 56 582 l 42 699 l 58 813 l 75 829 l 135 929 l 271 1024 l 333 1054 l 401 994 l 451 924 l 472 913 l 481 954 l 526 1054 l 554 1054 l 554 1001 l 521 815 l 504 807 l 461 840 l 407 908 l 381 961 l 360 983 l 314 968 l 238 872 l 268 622 l 268 549 l 281 522 l 281 415 l 288 342 l 288 308 l 303 139 l 292 64 l 314 75 l 467 190 l 478 336 l 539 407 l 528 301 l 528 229 l 514 175 l 488 156 l 414 89 l 328 29 l 232 -15 l 115 22 "},"D":{"ha":785,"x_min":0,"x_max":0,"o":"m 71 104 l 131 125 l 171 132 l 164 1018 l 157 1031 l 104 951 l 104 935 l 129 922 l 139 892 l 100 876 l 42 900 l 67 971 l 124 1057 l 190 1090 l 264 1104 l 424 1104 l 483 1085 l 613 1060 l 631 1024 l 743 631 l 743 585 l 724 544 l 657 292 l 650 251 l 622 160 l 583 151 l 564 132 l 536 111 l 517 92 l 417 58 l 297 58 l 71 86 m 383 99 l 436 99 l 510 135 l 567 560 l 557 685 l 557 704 l 550 758 l 550 778 l 506 1013 l 475 1028 l 343 1054 l 343 1031 l 338 957 l 338 811 l 343 785 l 324 531 l 331 510 l 319 400 l 331 338 l 331 204 l 322 114 "},"E":{"ha":621,"x_min":0,"x_max":0,"o":"m 163 74 l 129 539 l 129 749 l 122 839 l 122 1029 l 57 1036 l 42 1053 l 63 1074 l 324 1090 l 538 1060 l 547 1049 l 547 933 l 542 890 l 542 835 l 500 818 l 450 851 l 450 972 l 417 1004 l 351 1024 l 344 1011 l 365 972 l 365 928 l 358 903 l 358 869 l 331 754 l 339 731 l 339 613 l 358 603 l 397 603 l 411 692 l 417 692 l 486 714 l 503 696 l 489 640 l 489 532 l 476 342 l 438 326 l 392 342 l 385 379 l 385 514 l 371 565 l 344 565 l 344 481 l 332 431 l 332 411 l 325 335 l 333 213 l 325 131 l 313 92 l 313 61 l 414 83 l 488 154 l 508 251 l 508 264 l 528 283 l 572 303 l 579 297 l 565 258 l 565 79 l 528 61 l 463 61 l 424 42 l 300 10 l 260 -10 l 228 -10 l 185 -1 "},"F":{"ha":604,"x_min":0,"x_max":0,"o":"m 92 15 l 132 28 l 118 142 l 118 557 l 110 613 l 119 624 l 104 1017 l 72 1024 l 42 1038 l 56 1051 l 318 1106 l 379 1106 l 444 1111 l 563 1111 l 563 1028 l 556 1010 l 536 908 l 524 894 l 497 894 l 468 922 l 479 1074 l 464 1081 l 313 1060 l 297 1043 l 307 1024 l 317 1014 l 340 946 l 340 767 l 333 729 l 333 614 l 379 614 l 379 767 l 461 783 l 483 761 l 483 564 l 463 522 l 414 510 l 394 529 l 382 576 l 340 576 l 326 564 l 315 500 l 303 226 l 318 86 l 307 67 l 301 60 l 301 53 l 386 53 l 386 29 l 314 21 l 268 8 l 157 -4 l 92 3 "},"G":{"ha":761,"x_min":0,"x_max":0,"o":"m 204 124 l 94 385 l 49 607 l 42 614 l 42 646 l 172 1024 l 217 1067 l 269 1092 l 422 1092 l 481 1071 l 544 1017 l 574 1075 l 615 1088 l 615 1003 l 575 885 l 551 872 l 524 882 l 518 908 l 497 932 l 451 1029 l 315 1022 l 301 1010 l 219 650 l 243 614 l 263 531 l 275 415 l 275 397 l 289 314 l 296 296 l 308 213 l 308 199 l 331 108 l 504 136 l 504 353 l 514 429 l 446 429 l 419 415 l 419 390 l 432 378 l 456 386 l 492 368 l 492 333 l 465 282 l 426 301 l 399 310 l 367 371 l 367 422 l 381 435 l 438 467 l 589 467 l 628 460 l 661 486 l 719 508 l 719 499 l 682 425 l 642 400 l 572 125 l 538 90 l 504 90 l 269 53 l 242 63 "},"H":{"ha":747,"x_min":0,"x_max":0,"o":"m 65 28 l 136 51 l 111 479 l 65 488 l 65 504 l 111 515 l 111 1078 l 42 1113 l 58 1131 l 118 1131 l 307 1111 l 353 1097 l 353 1090 l 307 1071 l 261 1063 l 275 1010 l 275 865 l 268 819 l 268 554 l 340 554 l 482 567 l 482 674 l 497 865 l 497 992 l 488 1015 l 497 1025 l 497 1038 l 472 1061 l 640 1076 l 667 1063 l 706 1050 l 706 1038 l 679 1031 l 660 1010 l 660 992 l 626 924 l 626 613 l 619 506 l 629 192 l 619 117 l 613 85 l 672 71 l 686 57 l 613 24 l 497 24 l 457 43 l 438 50 l 438 64 l 471 81 l 464 136 l 476 501 l 469 521 l 397 514 l 385 514 l 275 500 l 275 468 l 268 394 l 268 368 l 261 289 l 261 104 l 254 78 l 261 71 l 300 71 l 333 57 l 318 42 l 85 7 l 65 18 "},"I":{"ha":406,"x_min":0,"x_max":0,"o":"m 111 60 l 103 104 l 103 992 l 63 1010 l 113 1067 l 142 1078 l 331 1078 l 364 1071 l 351 1057 l 351 1032 l 267 1017 l 272 997 l 272 951 l 279 906 l 272 871 l 272 196 l 265 131 l 279 104 l 272 89 l 324 83 l 351 83 l 364 76 l 336 64 l 57 24 l 42 39 "},"J":{"ha":551,"x_min":0,"x_max":0,"o":"m 188 24 l 161 42 l 110 175 l 90 215 l 90 261 l 113 300 l 175 322 l 257 322 l 247 156 l 247 129 l 235 129 l 182 160 l 182 143 l 222 50 l 276 50 l 340 97 l 325 143 l 314 592 l 331 1007 l 319 1018 l 104 1010 l 88 994 l 118 910 l 136 892 l 151 892 l 163 950 l 179 967 l 189 958 l 196 931 l 183 853 l 176 832 l 176 819 l 131 819 l 97 854 l 67 924 l 51 978 l 42 999 l 79 1057 l 164 1071 l 432 1088 l 471 1075 l 510 1022 l 508 276 l 501 163 l 501 69 l 478 38 l 338 17 l 325 11 l 249 -14 l 200 11 m 182 182 l 175 268 l 129 253 l 174 165 "},"K":{"ha":911,"x_min":0,"x_max":0,"o":"m 513 65 l 513 107 l 492 169 l 500 179 l 494 190 l 494 203 l 482 250 l 482 281 l 475 292 l 463 368 l 463 404 l 457 404 l 444 451 l 432 464 l 432 500 l 414 500 l 326 468 l 310 451 l 310 410 l 283 351 l 283 326 l 279 263 l 279 143 l 260 107 l 260 71 l 279 54 l 247 24 l 138 13 l 57 13 l 42 19 l 100 43 l 100 535 l 107 619 l 111 647 l 111 819 l 118 839 l 118 857 l 124 944 l 124 1082 l 81 1103 l 81 1118 l 131 1133 l 286 1117 l 318 1101 l 297 1082 l 297 1058 l 310 1022 l 310 963 l 319 885 l 310 689 l 315 647 l 315 518 l 389 589 l 401 613 l 408 619 l 432 660 l 439 665 l 546 854 l 538 879 l 543 885 l 549 899 l 561 910 l 568 921 l 586 939 l 636 1029 l 669 1061 l 697 1069 l 778 1069 l 869 1046 l 869 1039 l 839 1028 l 814 1028 l 697 826 l 668 742 l 606 657 l 410 535 l 439 535 l 457 542 l 518 542 l 525 535 l 549 522 l 556 511 l 549 506 l 568 506 l 608 467 l 654 250 l 661 232 l 692 78 l 692 67 l 740 60 l 821 60 l 790 40 l 790 29 l 825 24 l 778 1 l 721 1 l 704 -6 l 654 -6 l 556 24 "},"L":{"ha":631,"x_min":0,"x_max":0,"o":"m 42 49 l 60 121 l 97 129 l 128 121 l 114 93 l 114 51 l 158 51 l 150 199 l 150 561 l 157 681 l 149 1007 l 82 1019 l 110 1047 l 142 1056 l 278 1056 l 307 1040 l 314 1007 l 322 544 l 317 485 l 317 183 l 304 135 l 299 124 l 292 82 l 299 75 l 385 93 l 438 178 l 496 379 l 525 407 l 550 407 l 557 396 l 538 265 l 538 140 l 550 117 l 589 81 l 544 69 l 471 64 l 439 57 l 343 47 l 243 15 l 114 15 l 69 24 "},"M":{"ha":1115,"x_min":0,"x_max":0,"o":"m 92 58 l 92 69 l 103 93 l 269 974 l 281 997 l 222 1018 l 292 1053 l 410 1036 l 429 1026 l 436 997 l 467 896 l 535 485 l 540 485 l 540 492 l 553 533 l 558 539 l 558 563 l 689 938 l 713 985 l 713 1011 l 744 1026 l 947 1026 l 983 1015 l 960 1001 l 875 996 l 850 957 l 935 211 l 947 176 l 947 110 l 960 99 l 1021 99 l 1074 92 l 1021 75 l 818 33 l 793 39 l 779 53 l 799 64 l 888 83 l 908 103 l 824 658 l 824 669 l 811 824 l 806 819 l 617 322 l 583 307 l 540 307 l 514 332 l 497 414 l 479 468 l 411 806 l 406 806 l 406 771 l 399 711 l 399 693 l 374 575 l 374 557 l 361 497 l 361 485 l 350 450 l 350 383 l 325 254 l 307 194 l 307 146 l 322 139 l 304 121 l 275 111 l 238 88 l 82 28 l 42 28 l 42 33 "},"N":{"ha":929,"x_min":0,"x_max":0,"o":"m 669 60 l 614 160 l 575 197 l 501 342 l 432 532 l 346 715 l 339 735 l 325 749 l 319 729 l 319 676 l 290 461 l 290 310 l 283 236 l 283 185 l 278 146 l 283 139 l 283 115 l 261 82 l 197 65 l 61 65 l 42 72 l 68 100 l 101 115 l 108 204 l 108 315 l 129 631 l 129 676 l 150 906 l 150 1001 l 75 1011 l 65 1021 l 96 1031 l 246 1050 l 313 1018 l 332 979 l 332 924 l 453 657 l 554 486 l 667 213 l 722 157 l 696 400 l 696 414 l 690 428 l 690 454 l 683 493 l 683 519 l 676 585 l 676 671 l 669 749 l 669 761 l 656 828 l 649 900 l 642 913 l 631 956 l 542 986 l 542 996 l 676 1006 l 699 1017 l 724 1006 l 865 1006 l 876 994 l 831 972 l 769 972 l 736 940 l 729 790 l 736 585 l 764 313 l 757 272 l 785 124 l 804 106 l 888 89 l 858 60 l 757 53 l 708 43 l 690 53 "},"O":{"ha":876,"x_min":0,"x_max":0,"o":"m 225 106 l 131 174 l 93 228 l 76 303 l 76 342 l 42 767 l 69 861 l 81 908 l 194 1054 l 260 1103 l 390 1113 l 500 1099 l 635 1043 l 644 1025 l 678 972 l 690 946 l 697 939 l 731 861 l 797 761 l 826 525 l 826 435 l 835 425 l 790 288 l 711 178 l 681 125 l 644 119 l 467 39 l 388 39 l 336 49 m 393 72 l 428 72 l 596 151 l 604 382 l 615 394 l 610 400 l 603 465 l 615 722 l 603 828 l 603 925 l 582 999 l 536 1044 l 482 1071 l 321 1071 l 314 1038 l 293 1011 l 242 892 l 231 458 l 244 329 l 244 151 l 267 131 "},"P":{"ha":792,"x_min":0,"x_max":0,"o":"m 121 10 l 211 26 l 190 132 l 190 217 l 183 303 l 183 525 l 176 539 l 176 638 l 190 768 l 190 1057 l 171 1076 l 143 1051 l 122 1011 l 164 1006 l 176 992 l 157 953 l 157 913 l 126 913 l 69 949 l 42 1006 l 42 1018 l 96 1124 l 176 1124 l 461 1051 l 501 1031 l 588 1006 l 663 965 l 683 925 l 710 796 l 743 696 l 750 683 l 736 664 l 731 638 l 676 532 l 647 490 l 635 435 l 601 428 l 575 407 l 494 361 l 393 290 l 365 281 l 365 210 l 360 165 l 360 60 l 353 46 l 379 46 l 386 33 l 406 14 l 399 7 l 185 -14 l 136 -6 m 367 397 l 453 461 l 504 506 l 546 982 l 386 1031 l 360 1031 l 360 435 "},"Q":{"ha":785,"x_min":0,"x_max":0,"o":"m 519 -111 l 447 -4 l 383 -22 l 268 25 l 201 61 l 150 72 l 139 93 l 58 157 l 42 186 l 42 719 l 57 824 l 90 892 l 178 988 l 275 1006 l 503 1018 l 569 1008 l 743 661 l 721 546 l 683 172 l 654 142 l 629 131 l 526 39 l 551 0 l 571 -60 l 596 -85 l 622 -24 l 606 26 l 679 93 l 690 81 l 739 -11 l 715 -43 l 701 -71 l 635 -125 l 583 -150 l 543 -137 m 390 25 l 415 25 l 415 42 l 343 122 l 299 64 m 274 85 l 286 100 l 308 143 l 378 186 l 404 186 l 440 149 l 446 136 l 492 83 l 557 139 l 538 199 l 538 290 l 550 304 l 542 317 l 531 651 l 525 682 l 525 818 l 513 961 l 488 986 l 275 974 l 254 953 l 263 936 l 250 849 l 250 807 l 238 651 l 219 626 l 219 204 l 208 118 l 222 103 "},"R":{"ha":933,"x_min":0,"x_max":0,"o":"m 653 11 l 572 43 l 468 108 l 444 142 l 444 149 l 433 174 l 353 447 l 335 447 l 335 428 l 326 360 l 335 322 l 335 160 l 321 68 l 335 61 l 385 61 l 396 50 l 372 43 l 360 32 l 138 15 l 108 32 l 108 40 l 182 58 l 169 285 l 169 460 l 176 515 l 176 1040 l 207 1047 l 213 1047 l 218 1054 l 169 1054 l 133 1017 l 133 979 l 146 967 l 174 953 l 164 943 l 133 936 l 107 928 l 42 958 l 42 1024 l 83 1067 l 138 1093 l 256 1086 l 549 999 l 607 972 l 622 925 l 635 899 l 647 813 l 647 788 l 656 744 l 640 700 l 635 688 l 629 669 l 604 626 l 579 614 l 531 578 l 500 578 l 353 501 l 385 496 l 429 496 l 507 463 l 678 135 l 729 83 l 858 60 l 892 43 l 831 13 l 768 6 l 683 6 l 660 11 m 328 546 l 340 546 l 390 578 l 433 613 l 439 713 l 444 750 l 444 836 l 458 946 l 450 969 l 335 1006 l 324 1006 l 340 979 l 335 949 l 335 917 l 328 843 "},"S":{"ha":714,"x_min":0,"x_max":0,"o":"m 256 106 l 238 118 l 188 142 l 126 186 l 61 222 l 53 251 l 65 297 l 132 440 l 147 456 l 244 489 l 293 456 l 307 428 l 297 410 l 286 397 l 274 372 l 247 346 l 222 354 l 194 390 l 181 390 l 144 297 l 144 269 l 193 249 l 322 174 l 364 154 l 386 140 l 429 394 l 417 419 l 376 453 l 292 539 l 263 625 l 196 675 l 163 731 l 42 899 l 78 971 l 121 1033 l 144 1078 l 175 1108 l 261 1129 l 549 1065 l 672 1018 l 664 1003 l 646 985 l 567 774 l 543 774 l 488 829 l 464 867 l 432 903 l 438 917 l 469 917 l 469 890 l 497 864 l 506 872 l 518 922 l 550 1013 l 297 1069 l 286 1047 l 251 889 l 519 622 l 590 539 l 621 510 l 621 460 l 506 106 l 506 56 l 482 32 l 443 32 l 346 56 "},"T":{"ha":622,"x_min":0,"x_max":0,"o":"m 172 32 l 247 54 l 235 111 l 222 304 l 221 1029 l 196 1038 l 183 1031 l 178 988 l 149 953 l 135 836 l 149 765 l 110 756 l 92 764 l 56 796 l 56 1019 l 42 1079 l 161 1090 l 251 1082 l 294 1082 l 354 1069 l 367 1075 l 367 1069 l 539 1056 l 581 1025 l 581 771 l 522 771 l 503 803 l 488 932 l 446 1013 l 367 1013 l 385 957 l 385 889 l 397 803 l 399 217 l 393 186 l 393 74 l 424 68 l 447 56 l 447 44 l 381 25 l 271 11 l 217 0 l 179 18 "},"U":{"ha":976,"x_min":0,"x_max":0,"o":"m 232 83 l 178 140 l 150 247 l 124 647 l 136 713 l 136 1053 l 49 1081 l 42 1094 l 56 1101 l 157 1101 l 258 1081 l 417 1022 l 478 982 l 478 964 l 367 989 l 376 840 l 376 446 l 382 375 l 382 339 l 392 250 l 376 189 l 390 158 l 506 119 l 590 75 l 607 92 l 640 140 l 697 207 l 710 233 l 710 671 l 724 806 l 724 1024 l 710 1038 l 658 1046 l 628 1063 l 628 1089 l 724 1089 l 868 1072 l 907 1053 l 935 1042 l 935 1018 l 832 1018 l 825 960 l 806 911 l 813 585 l 792 275 l 792 233 l 764 204 l 751 176 l 731 147 l 682 57 l 515 6 l 382 6 "},"V":{"ha":1058,"x_min":0,"x_max":0,"o":"m 346 64 l 156 972 l 126 1018 l 69 1018 l 42 1031 l 42 1051 l 132 1074 l 261 1074 l 429 1058 l 497 1033 l 508 1010 l 396 1003 l 410 883 l 410 861 l 450 536 l 450 508 l 479 419 l 492 317 l 529 185 l 540 197 l 774 1007 l 764 1018 l 683 1031 l 663 1053 l 669 1060 l 963 1060 l 1017 1031 l 1017 1018 l 878 1007 l 857 986 l 599 32 l 610 11 l 574 -1 l 444 -1 l 382 7 "},"W":{"ha":1193,"x_min":0,"x_max":0,"o":"m 208 -15 l 296 10 l 296 21 l 283 42 l 235 154 l 140 465 l 133 514 l 126 543 l 119 614 l 113 649 l 113 719 l 107 742 l 107 1003 l 93 1018 l 65 1024 l 42 1040 l 57 1057 l 138 1078 l 285 1056 l 321 1038 l 283 1011 l 318 890 l 318 769 l 325 706 l 325 558 l 365 410 l 386 375 l 451 178 l 461 197 l 604 726 l 604 769 l 547 800 l 610 813 l 761 813 l 789 797 l 746 772 l 746 742 l 754 713 l 754 649 l 761 636 l 761 600 l 789 488 l 789 458 l 794 431 l 801 367 l 808 353 l 815 317 l 822 331 l 915 933 l 904 982 l 904 1053 l 890 1067 l 829 1067 l 829 1081 l 850 1094 l 943 1110 l 1101 1094 l 1151 1079 l 1114 1067 l 1057 1060 l 1039 1031 l 972 961 l 958 847 l 944 790 l 890 317 l 869 233 l 869 204 l 851 90 l 863 76 l 958 76 l 985 63 l 943 28 l 808 21 l 758 13 l 679 22 l 696 38 l 665 69 l 665 83 l 651 133 l 651 147 l 617 282 l 610 331 l 596 363 l 543 197 l 482 57 l 454 46 l 454 28 l 414 -6 l 288 -36 l 208 -36 "},"X":{"ha":949,"x_min":0,"x_max":0,"o":"m 660 18 l 596 63 l 476 171 l 386 364 l 375 364 l 213 100 l 275 89 l 275 74 l 164 47 l 71 47 l 54 69 l 106 85 l 147 85 l 333 401 l 346 417 l 346 439 l 115 969 l 82 1014 l 42 1022 l 42 1035 l 164 1071 l 264 1071 l 299 1057 l 310 1043 l 321 1035 l 364 983 l 376 944 l 399 924 l 404 894 l 426 838 l 457 792 l 457 778 l 475 756 l 503 689 l 749 1043 l 649 1043 l 639 1057 l 661 1064 l 667 1064 l 690 1071 l 835 1088 l 901 1071 l 907 1064 l 814 1051 l 744 954 l 632 763 l 568 682 l 538 629 l 538 592 l 571 551 l 579 513 l 590 497 l 614 431 l 621 401 l 661 283 l 725 222 l 765 154 l 785 85 l 785 54 l 878 54 l 878 40 l 774 18 l 761 11 l 721 11 l 701 18 "},"Y":{"ha":890,"x_min":0,"x_max":0,"o":"m 388 51 l 388 63 l 394 76 l 388 92 l 340 629 l 340 756 l 319 797 l 136 1067 l 60 1067 l 42 1086 l 231 1138 l 275 1138 l 335 1096 l 374 1044 l 414 1003 l 442 947 l 500 847 l 513 847 l 611 1024 l 633 1053 l 667 1124 l 592 1131 l 578 1144 l 801 1171 l 849 1153 l 831 1144 l 760 1124 l 742 1094 l 701 1053 l 694 1031 l 550 763 l 524 724 l 524 163 l 514 78 l 575 63 l 536 42 l 428 21 l 326 21 l 301 33 "},"Z":{"ha":792,"x_min":0,"x_max":0,"o":"m 44 68 l 72 211 l 379 788 l 518 969 l 518 1013 l 189 1038 l 147 992 l 106 974 l 119 876 l 185 856 l 203 835 l 203 811 l 172 793 l 161 757 l 161 740 l 147 726 l 111 726 l 69 774 l 56 828 l 42 1078 l 71 1110 l 294 1101 l 618 1060 l 704 1074 l 750 1022 l 750 975 l 736 944 l 701 906 l 525 632 l 518 615 l 504 592 l 497 576 l 463 522 l 456 506 l 350 318 l 247 89 l 579 107 l 636 154 l 654 315 l 644 325 l 599 292 l 581 311 l 581 349 l 638 411 l 714 411 l 714 161 l 735 76 l 693 67 l 653 67 l 343 36 l 167 -4 l 150 -12 l 57 39 "},"_":{"ha":789,"x_min":0,"x_max":0,"o":"m 108 56 l 208 44 l 353 58 l 747 67 l 747 17 l 708 -11 l 589 -25 l 42 -28 l 42 44 "},"a":{"ha":747,"x_min":0,"x_max":0,"o":"m 63 194 l 42 238 l 54 264 l 61 283 l 107 356 l 119 381 l 185 472 l 250 538 l 276 538 l 415 488 l 426 499 l 429 607 l 446 763 l 264 786 l 228 728 l 211 672 l 203 611 l 210 611 l 254 657 l 264 689 l 314 639 l 314 592 l 265 592 l 197 546 l 179 546 l 171 565 l 171 639 l 247 831 l 514 803 l 568 786 l 600 754 l 585 738 l 611 106 l 642 49 l 683 108 l 706 92 l 667 25 l 622 22 l 574 39 l 478 133 l 368 35 l 332 18 l 322 -4 l 283 10 m 289 35 l 304 35 l 463 168 l 446 225 l 446 244 l 426 394 l 413 407 l 388 407 l 335 414 l 267 394 l 211 350 l 211 288 l 276 49 "},"b":{"ha":739,"x_min":0,"x_max":0,"o":"m 43 7 l 107 31 l 111 71 l 104 183 l 111 404 l 124 411 l 132 832 l 165 1185 l 128 1192 l 90 1192 l 79 1204 l 74 1236 l 138 1236 l 157 1242 l 271 1242 l 307 1224 l 304 1185 l 307 1154 l 296 1035 l 300 958 l 293 883 l 289 694 l 281 606 l 285 575 l 390 778 l 436 794 l 461 794 l 468 779 l 651 656 l 697 606 l 676 379 l 676 329 l 669 310 l 656 158 l 640 133 l 617 61 l 586 32 l 501 32 l 311 121 l 260 156 l 250 133 l 242 121 l 249 108 l 246 88 l 267 13 l 243 1 l 206 1 l 129 -11 l 61 -11 l 42 -1 m 510 86 l 526 154 l 521 208 l 524 235 l 525 524 l 526 536 l 526 663 l 529 690 l 443 750 l 429 750 l 338 531 l 319 474 l 311 454 l 276 347 l 275 265 l 271 215 l 372 153 "},"c":{"ha":628,"x_min":0,"x_max":0,"o":"m 129 103 l 111 142 l 79 249 l 42 443 l 42 575 l 54 601 l 140 753 l 240 817 l 360 851 l 389 851 l 397 826 l 410 814 l 422 794 l 454 757 l 481 713 l 499 713 l 542 814 l 568 814 l 583 783 l 561 725 l 536 561 l 518 553 l 460 597 l 410 732 l 392 750 l 379 776 l 367 776 l 354 763 l 342 757 l 310 725 l 247 624 l 239 485 l 285 247 l 332 106 l 350 88 l 508 174 l 518 324 l 539 367 l 578 367 l 586 342 l 586 190 l 572 161 l 543 146 l 393 43 l 342 26 l 290 26 l 251 35 "},"d":{"ha":700,"x_min":0,"x_max":0,"o":"m 429 42 l 467 61 l 457 94 l 361 67 l 189 67 l 143 86 l 110 118 l 88 181 l 79 193 l 42 388 l 57 522 l 104 619 l 168 719 l 217 744 l 306 760 l 411 701 l 418 719 l 413 953 l 413 958 l 411 1067 l 418 1128 l 397 1182 l 419 1193 l 588 1175 l 635 1161 l 653 1142 l 654 1125 l 629 1117 l 604 1117 l 593 1104 l 599 997 l 592 915 l 618 449 l 615 213 l 610 174 l 611 149 l 610 86 l 643 78 l 658 64 l 642 49 l 600 29 l 506 29 l 457 13 l 429 26 m 290 108 l 410 149 l 422 149 l 447 161 l 425 622 l 314 682 l 296 688 l 276 706 l 244 588 l 226 546 l 206 408 l 249 225 l 250 213 l 279 118 "},"e":{"ha":658,"x_min":0,"x_max":0,"o":"m 164 60 l 113 129 l 88 226 l 56 408 l 56 421 l 42 604 l 58 665 l 94 714 l 125 743 l 157 778 l 188 800 l 279 833 l 340 833 l 468 804 l 533 756 l 578 571 l 603 511 l 590 476 l 560 467 l 357 439 l 301 439 l 274 425 l 288 346 l 275 283 l 289 243 l 289 189 l 317 71 l 331 71 l 447 147 l 511 258 l 496 278 l 478 313 l 456 332 l 421 300 l 390 261 l 439 264 l 433 243 l 357 231 l 328 250 l 346 283 l 383 318 l 413 357 l 447 369 l 521 369 l 560 351 l 575 325 l 606 315 l 617 306 l 539 172 l 496 135 l 433 94 l 390 54 l 326 25 l 264 25 l 206 36 m 429 479 l 414 588 l 408 604 l 408 690 l 403 701 l 389 758 l 288 765 l 244 719 l 226 685 l 226 656 l 239 628 l 258 524 l 258 496 l 264 472 l 264 460 "},"f":{"ha":636,"x_min":0,"x_max":0,"o":"m 160 -11 l 160 24 l 175 39 l 214 19 l 200 6 l 213 -6 l 226 -6 l 265 49 l 224 264 l 224 749 l 107 740 l 85 713 l 99 685 l 122 674 l 129 682 l 129 717 l 176 717 l 194 699 l 194 622 l 165 622 l 89 649 l 42 679 l 42 729 l 69 769 l 89 769 l 224 790 l 236 1147 l 282 1183 l 322 1193 l 458 1181 l 482 1175 l 529 1175 l 582 1157 l 594 1146 l 571 1067 l 571 999 l 547 975 l 418 975 l 406 988 l 406 1046 l 424 1064 l 465 1064 l 465 1046 l 456 1019 l 471 1004 l 488 1004 l 494 1069 l 501 1100 l 475 1114 l 372 1124 l 360 1061 l 389 804 l 514 804 l 592 783 l 574 747 l 533 736 l 506 764 l 400 764 l 406 517 l 444 26 l 426 10 l 400 0 l 296 -61 l 289 -76 l 265 -76 l 253 -82 l 190 -75 "},"g":{"ha":760,"x_min":0,"x_max":0,"o":"m 182 -217 l 150 -185 l 103 -157 l 86 -122 l 125 0 l 286 83 l 286 97 l 233 83 l 118 83 l 106 96 l 100 118 l 118 131 l 208 207 l 175 240 l 100 378 l 42 536 l 42 578 l 71 635 l 161 736 l 217 750 l 363 769 l 421 761 l 481 732 l 522 678 l 544 743 l 586 754 l 669 743 l 714 714 l 671 618 l 671 596 l 647 572 l 624 572 l 590 607 l 575 633 l 567 624 l 567 599 l 624 514 l 635 410 l 590 278 l 522 233 l 417 236 l 275 158 l 263 147 l 229 131 l 257 131 l 368 147 l 503 125 l 658 50 l 718 -8 l 718 -54 l 665 -128 l 636 -162 l 536 -256 l 442 -311 l 413 -311 l 394 -300 m 372 -250 l 408 -258 l 444 -258 l 478 -225 l 511 -178 l 519 -87 l 525 -76 l 525 -71 l 506 -17 l 478 14 l 417 53 l 344 64 l 206 0 l 183 -125 l 256 -192 l 308 -214 m 315 244 l 350 244 l 386 268 l 397 274 l 467 317 l 436 397 l 442 583 l 414 704 l 388 731 l 350 740 l 261 713 l 247 522 l 247 436 l 293 303 l 299 292 m 600 639 l 624 715 l 618 726 l 593 726 l 571 688 l 571 647 "},"h":{"ha":790,"x_min":0,"x_max":0,"o":"m 61 38 l 118 65 l 110 182 l 110 850 l 115 917 l 115 1025 l 125 1121 l 42 1125 l 63 1146 l 151 1164 l 286 1154 l 250 1111 l 214 1111 l 249 615 l 249 561 l 317 699 l 381 731 l 436 731 l 588 676 l 615 640 l 640 551 l 640 507 l 658 399 l 664 386 l 664 368 l 671 290 l 671 278 l 682 176 l 682 122 l 689 122 l 689 79 l 749 74 l 743 67 l 728 38 l 636 29 l 496 39 l 496 49 l 504 57 l 489 128 l 489 140 l 483 213 l 483 242 l 471 326 l 453 658 l 406 682 l 356 682 l 249 444 l 249 236 l 254 206 l 254 188 l 261 140 l 261 76 l 279 67 l 279 38 l 194 25 l 176 25 l 97 19 l 53 28 "},"i":{"ha":369,"x_min":0,"x_max":0,"o":"m 88 56 l 132 65 l 107 140 l 90 486 l 86 525 l 85 693 l 75 768 l 43 779 l 42 796 l 306 771 l 324 742 l 239 736 l 242 718 l 269 669 l 276 529 l 281 501 l 281 453 l 283 435 l 282 381 l 286 350 l 283 310 l 292 244 l 278 207 l 285 156 l 272 74 l 311 67 l 328 43 l 214 26 l 89 44 m 90 978 l 78 997 l 72 1039 l 103 1107 l 157 1111 l 196 1096 l 208 1083 l 229 1075 l 257 1047 l 260 1022 l 235 961 l 240 919 l 222 919 l 160 933 "},"j":{"ha":428,"x_min":0,"x_max":0,"o":"m 104 -190 l 79 -106 l 74 -94 l 61 -58 l 42 -19 l 104 -3 l 188 -3 l 222 -37 l 208 -65 l 185 -78 l 158 -64 l 143 -42 l 122 -28 l 92 -28 l 76 -35 l 110 -58 l 125 -65 l 161 -137 l 249 -93 l 242 -10 l 242 21 l 236 51 l 232 88 l 218 754 l 201 786 l 92 778 l 92 706 l 78 664 l 64 664 l 56 682 l 43 794 l 231 821 l 254 826 l 350 826 l 381 796 l 381 688 l 386 604 l 386 574 l 344 -56 l 303 -126 l 146 -208 l 128 -196 m 154 979 l 193 1100 l 215 1111 l 254 1086 l 297 1076 l 310 1054 l 285 917 l 285 888 l 249 888 l 200 911 "},"k":{"ha":779,"x_min":0,"x_max":0,"o":"m 125 56 l 97 585 l 99 703 l 108 715 l 96 982 l 100 1138 l 57 1147 l 42 1161 l 54 1175 l 79 1183 l 85 1183 l 125 1193 l 206 1183 l 229 1183 l 232 1126 l 243 1097 l 239 1060 l 257 708 l 253 558 l 258 553 l 301 568 l 399 758 l 392 768 l 397 783 l 364 801 l 394 819 l 461 819 l 521 806 l 539 793 l 683 761 l 669 728 l 574 728 l 563 703 l 531 671 l 519 665 l 392 551 l 361 539 l 489 482 l 515 454 l 522 435 l 531 422 l 560 331 l 554 164 l 672 117 l 678 110 l 686 119 l 690 189 l 738 133 l 681 25 l 649 13 l 588 13 l 494 61 l 493 72 l 432 299 l 386 397 l 336 481 l 244 481 l 250 211 l 243 88 l 269 78 l 271 58 l 253 47 l 242 38 l 143 25 l 111 38 "},"l":{"ha":514,"x_min":0,"x_max":0,"o":"m 42 82 l 89 94 l 81 133 l 81 685 l 92 844 l 92 896 l 104 1013 l 68 1049 l 185 1064 l 251 1049 l 317 1042 l 350 1024 l 326 1017 l 269 1017 l 269 997 l 281 967 l 264 588 l 251 536 l 251 504 l 246 471 l 246 414 l 238 401 l 247 382 l 238 268 l 238 144 l 225 133 l 225 119 l 269 107 l 326 107 l 383 96 l 390 119 l 390 164 l 343 172 l 315 203 l 315 210 l 368 210 l 397 190 l 407 236 l 376 236 l 365 222 l 333 222 l 376 268 l 397 296 l 415 306 l 458 306 l 468 253 l 451 135 l 460 93 l 472 82 l 472 63 l 422 63 l 294 78 l 76 61 l 42 69 "},"m":{"ha":1014,"x_min":0,"x_max":0,"o":"m 106 108 l 79 601 l 99 829 l 83 858 l 61 867 l 42 890 l 85 900 l 146 900 l 242 872 l 242 788 l 249 743 l 249 724 l 256 708 l 349 858 l 453 844 l 519 808 l 531 796 l 554 778 l 563 661 l 663 776 l 686 808 l 758 808 l 813 788 l 929 721 l 954 694 l 933 417 l 933 399 l 928 371 l 928 333 l 921 293 l 921 256 l 910 164 l 892 143 l 903 143 l 913 125 l 961 115 l 972 103 l 910 79 l 817 79 l 731 119 l 722 140 l 729 235 l 724 242 l 729 281 l 729 379 l 740 457 l 740 503 l 753 549 l 776 742 l 738 769 l 708 769 l 682 710 l 633 658 l 585 619 l 592 593 l 592 118 l 657 118 l 657 106 l 603 92 l 435 92 l 390 117 l 399 124 l 446 132 l 422 200 l 422 450 l 429 549 l 429 613 l 440 704 l 440 801 l 403 822 l 249 579 l 265 394 l 254 183 l 264 161 l 254 106 l 261 81 l 249 65 l 68 65 l 51 85 "},"n":{"ha":838,"x_min":0,"x_max":0,"o":"m 504 86 l 504 169 l 497 215 l 492 222 l 492 678 l 439 678 l 383 619 l 276 407 l 276 339 l 282 299 l 276 247 l 269 235 l 269 215 l 264 203 l 264 157 l 256 138 l 264 138 l 264 94 l 285 60 l 101 32 l 86 49 l 96 60 l 132 79 l 119 247 l 119 268 l 113 379 l 113 721 l 89 731 l 42 782 l 54 796 l 174 788 l 192 782 l 278 767 l 308 733 l 300 724 l 282 718 l 282 672 l 294 604 l 378 724 l 532 724 l 594 704 l 600 697 l 625 697 l 667 653 l 667 626 l 685 571 l 678 528 l 678 508 l 672 489 l 685 476 l 685 210 l 678 189 l 678 106 l 667 99 l 667 86 l 678 92 l 678 79 l 721 79 l 778 110 l 796 71 l 756 49 l 660 26 l 588 26 l 543 43 m 672 111 l 672 124 l 643 124 "},"o":{"ha":674,"x_min":0,"x_max":0,"o":"m 92 122 l 71 168 l 42 474 l 57 629 l 85 690 l 199 814 l 233 828 l 331 828 l 467 779 l 546 707 l 571 639 l 571 626 l 583 581 l 594 483 l 613 425 l 613 379 l 618 346 l 618 339 l 632 244 l 624 207 l 583 183 l 383 -26 l 349 -26 l 294 -6 m 364 17 l 414 72 l 432 124 l 439 138 l 469 250 l 446 535 l 446 710 l 415 742 l 300 788 l 256 797 l 247 769 l 228 750 l 210 690 l 189 643 l 199 554 l 199 404 l 217 247 l 217 111 l 258 68 "},"p":{"ha":681,"x_min":0,"x_max":0,"o":"m 151 -206 l 181 -194 l 110 779 l 117 794 l 63 801 l 40 811 l 40 819 l 157 839 l 331 839 l 411 821 l 551 749 l 638 675 l 638 664 l 626 654 l 622 638 l 569 546 l 532 386 l 526 375 l 528 339 l 407 293 l 346 279 l 299 233 l 300 213 l 296 110 l 303 -71 l 300 -99 l 301 -153 l 283 -186 l 285 -197 l 249 -224 l 186 -229 l 164 -236 l 106 -222 l 79 -181 l 78 -137 l 96 -111 l 140 -115 l 153 -146 l 110 -181 m 307 331 l 354 349 l 399 356 l 411 489 l 411 511 l 446 708 l 451 719 l 450 735 l 436 750 l 358 789 l 267 797 l 279 751 l 282 658 l 293 567 l 290 474 l 294 364 "},"q":{"ha":667,"x_min":0,"x_max":0,"o":"m 431 -393 l 414 -376 l 397 -325 l 389 -258 l 313 -269 l 285 -269 l 261 -281 l 261 -297 l 297 -321 l 317 -281 l 329 -281 l 347 -297 l 347 -336 l 322 -361 l 294 -354 l 235 -324 l 217 -289 l 233 -254 l 278 -240 l 386 -221 l 379 182 l 371 264 l 219 232 l 163 250 l 135 279 l 128 292 l 122 296 l 72 432 l 54 467 l 42 511 l 42 551 l 172 750 l 218 796 l 258 796 l 275 790 l 338 783 l 396 768 l 411 783 l 463 810 l 599 783 l 613 768 l 585 750 l 560 750 l 553 688 l 549 268 l 542 160 l 556 -197 l 644 -189 l 654 -147 l 624 -178 l 596 -178 l 590 -132 l 583 -118 l 636 -93 l 692 -93 l 726 -110 l 714 -201 l 692 -211 l 550 -242 l 550 -308 l 544 -319 l 544 -347 l 539 -360 l 539 -371 l 504 -406 l 493 -406 l 460 -393 m 375 303 l 400 608 l 400 738 l 347 761 l 296 761 l 281 738 l 258 722 l 194 606 l 210 525 l 218 507 l 258 369 l 271 342 l 289 276 "},"r":{"ha":644,"x_min":0,"x_max":0,"o":"m 119 38 l 90 364 l 96 525 l 92 628 l 94 689 l 90 786 l 65 793 l 42 806 l 69 825 l 243 833 l 257 818 l 246 793 l 246 767 l 258 732 l 268 681 l 338 819 l 449 819 l 533 793 l 586 767 l 603 749 l 596 744 l 531 588 l 510 565 l 496 531 l 496 524 l 474 511 l 433 539 l 386 601 l 369 688 l 407 694 l 479 694 l 481 672 l 461 640 l 440 628 l 442 607 l 463 588 l 478 625 l 513 758 l 486 771 l 393 799 l 360 799 l 347 782 l 281 571 l 288 406 l 278 361 l 276 278 l 278 244 l 268 193 l 269 149 l 254 56 l 274 50 l 258 24 l 115 7 l 86 18 "},"s":{"ha":617,"x_min":0,"x_max":0,"o":"m 339 43 l 347 43 l 383 67 l 372 139 l 375 417 l 139 467 l 67 519 l 58 581 l 140 800 l 226 800 l 253 806 l 424 821 l 518 803 l 528 794 l 519 767 l 518 682 l 529 632 l 543 611 l 514 599 l 458 599 l 388 610 l 374 621 l 371 656 l 394 701 l 414 693 l 422 632 l 432 632 l 438 722 l 446 772 l 425 778 l 261 778 l 269 711 l 257 660 l 249 649 l 222 529 l 238 517 l 435 464 l 549 415 l 575 378 l 489 110 l 482 99 l 479 75 l 461 21 l 439 -3 l 389 -3 l 285 25 l 249 44 l 135 75 l 113 93 l 97 115 l 75 133 l 101 225 l 146 294 l 228 294 l 286 269 l 292 244 l 278 189 l 268 169 l 253 160 l 218 160 l 197 178 l 194 197 l 224 233 l 221 256 l 203 256 l 149 143 l 190 88 l 299 60 "},"t":{"ha":597,"x_min":0,"x_max":0,"o":"m 204 71 l 193 131 l 193 396 l 188 488 l 188 710 l 90 697 l 90 682 l 97 656 l 133 664 l 153 619 l 100 581 l 61 625 l 42 697 l 46 726 l 142 754 l 200 760 l 197 976 l 161 988 l 161 1007 l 197 1013 l 221 1025 l 289 1025 l 347 1013 l 353 1013 l 438 988 l 444 972 l 378 967 l 369 758 l 446 758 l 485 826 l 518 826 l 556 813 l 525 751 l 525 711 l 458 713 l 383 701 l 372 689 l 372 528 l 367 506 l 367 460 l 360 401 l 367 378 l 360 365 l 367 338 l 367 86 l 447 133 l 447 181 l 415 189 l 407 206 l 407 226 l 447 233 l 506 233 l 522 217 l 522 119 l 365 21 l 332 10 l 268 10 l 242 22 "},"u":{"ha":782,"x_min":0,"x_max":0,"o":"m 525 29 l 542 40 l 536 68 l 524 215 l 501 165 l 490 126 l 454 56 l 454 50 l 431 11 l 407 0 l 363 0 l 293 -7 l 268 0 l 119 86 l 61 142 l 43 193 l 71 743 l 42 772 l 42 790 l 89 782 l 164 761 l 239 722 l 263 679 l 263 635 l 249 615 l 257 586 l 250 549 l 250 514 l 246 488 l 246 460 l 233 301 l 233 197 l 228 176 l 228 135 l 297 104 l 382 51 l 519 415 l 519 564 l 507 696 l 501 711 l 501 751 l 617 751 l 690 736 l 710 718 l 717 696 l 658 696 l 669 683 l 669 657 l 676 592 l 676 494 l 682 475 l 682 374 l 700 188 l 710 143 l 710 42 l 740 29 l 740 0 l 594 -18 l 549 -8 "},"v":{"ha":771,"x_min":0,"x_max":0,"o":"m 261 54 l 288 68 l 186 408 l 114 763 l 90 785 l 51 794 l 42 804 l 49 811 l 193 811 l 244 793 l 257 782 l 325 597 l 325 564 l 336 522 l 342 476 l 349 453 l 349 436 l 360 413 l 360 378 l 406 200 l 413 193 l 517 718 l 532 749 l 471 767 l 471 782 l 610 782 l 719 769 l 729 760 l 626 742 l 556 669 l 453 131 l 425 85 l 438 63 l 382 43 l 354 38 l 342 33 l 267 33 l 250 43 "},"w":{"ha":1254,"x_min":0,"x_max":0,"o":"m 263 28 l 276 28 l 304 35 l 279 74 l 125 697 l 104 740 l 42 761 l 88 785 l 157 785 l 254 771 l 275 757 l 335 558 l 335 544 l 390 324 l 431 243 l 546 676 l 536 738 l 536 753 l 528 772 l 528 788 l 488 807 l 515 821 l 708 821 l 775 800 l 736 788 l 647 788 l 688 697 l 694 676 l 701 668 l 743 531 l 771 475 l 771 435 l 842 221 l 1025 665 l 1025 778 l 964 790 l 964 807 l 1054 821 l 1192 821 l 1213 814 l 1163 792 l 1078 682 l 1054 579 l 1033 539 l 1011 438 l 978 372 l 929 240 l 847 75 l 813 42 l 899 32 l 840 13 l 725 -6 l 688 33 l 646 124 l 639 158 l 583 282 l 558 369 l 515 240 l 508 200 l 469 103 l 469 58 l 435 40 l 429 28 l 363 0 l 254 0 l 232 11 "},"x":{"ha":953,"x_min":0,"x_max":0,"o":"m 578 79 l 463 247 l 454 256 l 414 317 l 400 310 l 379 282 l 372 275 l 296 171 l 269 124 l 269 110 l 386 96 l 386 82 l 365 63 l 206 63 l 151 47 l 89 47 l 42 54 l 47 63 l 188 97 l 226 138 l 386 358 l 151 765 l 117 800 l 71 810 l 47 821 l 47 835 l 129 856 l 338 807 l 338 772 l 407 690 l 419 663 l 454 628 l 496 558 l 519 536 l 703 758 l 703 772 l 649 783 l 706 811 l 911 800 l 911 793 l 890 779 l 821 772 l 793 753 l 711 707 l 600 558 l 594 544 l 551 494 l 551 460 l 586 414 l 628 331 l 656 303 l 683 256 l 683 240 l 701 224 l 711 192 l 718 186 l 769 97 l 793 85 l 793 75 l 876 75 l 904 68 l 886 51 l 835 33 l 772 26 l 729 11 l 639 32 "},"y":{"ha":840,"x_min":0,"x_max":0,"o":"m 261 -19 l 261 -47 l 286 -62 l 318 -79 l 418 -89 l 499 -61 l 524 -11 l 528 38 l 532 40 l 532 54 l 538 89 l 538 192 l 532 221 l 532 261 l 542 282 l 532 282 l 444 208 l 393 200 l 303 221 l 193 268 l 161 278 l 138 303 l 129 532 l 138 732 l 131 772 l 42 779 l 69 793 l 222 840 l 351 828 l 331 807 l 314 799 l 331 738 l 331 703 l 339 682 l 331 539 l 331 372 l 310 331 l 310 313 l 431 253 l 567 364 l 567 428 l 572 483 l 582 749 l 525 760 l 538 772 l 572 788 l 669 793 l 786 793 l 799 782 l 751 758 l 719 749 l 739 656 l 739 642 l 746 594 l 739 483 l 725 440 l 725 179 l 704 158 l 675 103 l 614 13 l 593 -28 l 579 -49 l 543 -139 l 503 -160 l 476 -160 l 435 -153 l 365 -153 l 344 -139 l 219 -104 l 197 -81 l 207 -43 l 207 -14 l 285 86 l 322 106 l 396 76 l 415 28 l 410 19 l 349 7 l 325 -26 l 315 -47 l 275 -22 l 321 24 l 310 33 l 292 33 l 263 -11 "},"z":{"ha":792,"x_min":0,"x_max":0,"o":"m 89 11 l 42 46 l 60 107 l 467 735 l 500 778 l 471 785 l 143 785 l 157 683 l 217 700 l 217 694 l 176 660 l 140 604 l 115 604 l 93 729 l 93 764 l 82 796 l 107 806 l 301 818 l 307 825 l 701 825 l 722 806 l 722 776 l 701 743 l 688 729 l 681 715 l 674 708 l 625 604 l 576 536 l 564 522 l 526 457 l 494 425 l 488 411 l 479 404 l 460 363 l 406 300 l 382 263 l 364 253 l 358 232 l 343 210 l 324 169 l 282 128 l 268 101 l 261 93 l 235 50 l 399 60 l 419 60 l 517 67 l 626 67 l 654 81 l 668 142 l 668 236 l 586 172 l 643 153 l 626 135 l 586 135 l 538 158 l 538 169 l 578 190 l 689 308 l 724 308 l 724 157 l 738 101 l 750 86 l 731 67 l 675 51 l 103 -3 "},"À":{"ha":788,"x_min":0,"x_max":0,"o":"m 200 46 l 201 99 l 215 151 l 215 192 l 221 218 l 239 361 l 228 371 l 85 390 l 103 354 l 128 338 l 200 326 l 217 310 l 189 244 l 135 244 l 82 299 l 61 358 l 42 399 l 42 425 l 82 425 l 239 403 l 249 411 l 369 1085 l 288 1085 l 263 1110 l 382 1124 l 401 1138 l 492 1144 l 554 1124 l 575 1104 l 575 1090 l 618 993 l 635 911 l 635 897 l 681 592 l 701 225 l 701 211 l 718 17 l 746 3 l 714 -8 l 594 -15 l 575 -22 l 488 -22 l 463 -4 l 482 6 l 526 13 l 515 58 l 492 106 l 468 299 l 454 342 l 322 358 l 279 158 l 260 118 l 260 51 l 328 44 l 339 32 l 272 18 l 267 18 l 125 -8 l 89 11 m 394 378 l 454 378 l 428 697 l 428 718 l 408 890 l 401 885 l 328 407 l 336 388 m 601 1207 l 592 1183 l 506 1201 l 374 1267 l 383 1297 l 435 1326 l 479 1326 "},"Á":{"ha":788,"x_min":0,"x_max":0,"o":"m 200 46 l 201 99 l 215 151 l 215 192 l 221 218 l 239 361 l 228 371 l 85 390 l 103 354 l 128 338 l 200 326 l 217 310 l 189 244 l 135 244 l 82 299 l 61 358 l 42 399 l 42 425 l 82 425 l 239 403 l 249 411 l 369 1085 l 288 1085 l 263 1110 l 382 1124 l 401 1138 l 492 1144 l 554 1124 l 575 1104 l 575 1090 l 618 993 l 635 911 l 635 897 l 681 592 l 701 225 l 701 211 l 718 17 l 746 3 l 714 -8 l 594 -15 l 575 -22 l 488 -22 l 463 -4 l 482 6 l 526 13 l 515 58 l 492 106 l 468 299 l 454 342 l 322 358 l 279 158 l 260 118 l 260 51 l 328 44 l 339 32 l 272 18 l 267 18 l 125 -8 l 89 11 m 394 378 l 454 378 l 428 697 l 428 718 l 408 890 l 401 885 l 328 407 l 336 388 m 465 1326 l 510 1326 l 561 1297 l 571 1267 l 439 1201 l 353 1183 l 343 1207 "},"Â":{"ha":788,"x_min":0,"x_max":0,"o":"m 200 46 l 201 99 l 215 151 l 215 192 l 221 218 l 239 361 l 228 371 l 85 390 l 103 354 l 128 338 l 200 326 l 217 310 l 189 244 l 135 244 l 82 299 l 61 358 l 42 399 l 42 425 l 82 425 l 239 403 l 249 411 l 369 1085 l 288 1085 l 263 1110 l 382 1124 l 401 1138 l 492 1144 l 554 1124 l 575 1104 l 575 1090 l 618 993 l 635 911 l 635 897 l 681 592 l 701 225 l 701 211 l 718 17 l 746 3 l 714 -8 l 594 -15 l 575 -22 l 488 -22 l 463 -4 l 482 6 l 526 13 l 515 58 l 492 106 l 468 299 l 454 342 l 322 358 l 279 158 l 260 118 l 260 51 l 328 44 l 339 32 l 272 18 l 267 18 l 125 -8 l 89 11 m 394 378 l 454 378 l 428 697 l 428 718 l 408 890 l 401 885 l 328 407 l 336 388 m 322 1244 l 442 1351 l 467 1344 l 564 1300 l 601 1261 l 621 1219 l 610 1179 l 565 1189 l 531 1211 l 519 1213 l 453 1253 l 319 1175 l 304 1178 "},"Ã":{"ha":788,"x_min":0,"x_max":0,"o":"m 200 46 l 201 99 l 215 151 l 215 192 l 221 218 l 239 361 l 228 371 l 85 390 l 103 354 l 128 338 l 200 326 l 217 310 l 189 244 l 135 244 l 82 299 l 61 358 l 42 399 l 42 425 l 82 425 l 239 403 l 249 411 l 369 1085 l 288 1085 l 263 1110 l 382 1124 l 401 1138 l 492 1144 l 554 1124 l 575 1104 l 575 1090 l 618 993 l 635 911 l 635 897 l 681 592 l 701 225 l 701 211 l 718 17 l 746 3 l 714 -8 l 594 -15 l 575 -22 l 488 -22 l 463 -4 l 482 6 l 526 13 l 515 58 l 492 106 l 468 299 l 454 342 l 322 358 l 279 158 l 260 118 l 260 51 l 328 44 l 339 32 l 272 18 l 267 18 l 125 -8 l 89 11 m 394 378 l 454 378 l 428 697 l 428 718 l 408 890 l 401 885 l 328 407 l 336 388 m 294 1207 l 263 1264 l 263 1286 l 306 1329 l 424 1300 l 519 1254 l 535 1269 l 518 1324 l 528 1347 l 551 1347 l 569 1340 l 619 1329 l 631 1321 l 631 1289 l 611 1261 l 603 1242 l 567 1179 l 532 1179 l 468 1214 l 358 1254 l 335 1254 l 353 1226 l 353 1186 l 324 1157 l 300 1179 "},"Ä":{"ha":788,"x_min":0,"x_max":0,"o":"m 200 46 l 201 99 l 215 151 l 215 192 l 221 218 l 239 361 l 228 371 l 85 390 l 103 354 l 128 338 l 200 326 l 217 310 l 189 244 l 135 244 l 82 299 l 61 358 l 42 399 l 42 425 l 82 425 l 239 403 l 249 411 l 369 1085 l 288 1085 l 263 1110 l 382 1124 l 401 1138 l 492 1144 l 554 1124 l 575 1104 l 575 1090 l 618 993 l 635 911 l 635 897 l 681 592 l 701 225 l 701 211 l 718 17 l 746 3 l 714 -8 l 594 -15 l 575 -22 l 488 -22 l 463 -4 l 482 6 l 526 13 l 515 58 l 492 106 l 468 299 l 454 342 l 322 358 l 279 158 l 260 118 l 260 51 l 328 44 l 339 32 l 272 18 l 267 18 l 125 -8 l 89 11 m 394 378 l 454 378 l 428 697 l 428 718 l 408 890 l 401 885 l 328 407 l 336 388 m 313 1254 l 301 1290 l 322 1335 l 364 1335 l 392 1303 l 440 1267 l 440 1217 l 410 1183 l 381 1183 l 351 1201 m 558 1210 l 540 1224 l 528 1243 l 511 1263 l 511 1303 l 528 1322 l 558 1322 l 635 1279 l 653 1249 l 653 1214 l 586 1179 "},"Å":{"ha":788,"x_min":0,"x_max":0,"o":"m 200 46 l 201 99 l 215 151 l 215 192 l 221 218 l 239 361 l 228 371 l 85 390 l 103 354 l 128 338 l 200 326 l 217 310 l 189 244 l 135 244 l 82 299 l 61 358 l 42 399 l 42 425 l 82 425 l 239 403 l 249 411 l 369 1085 l 288 1085 l 263 1110 l 382 1124 l 400 1136 l 311 1171 l 301 1186 l 288 1281 l 294 1329 l 308 1347 l 364 1386 l 381 1390 l 428 1390 l 494 1375 l 533 1353 l 553 1314 l 557 1283 l 567 1265 l 567 1251 l 576 1210 l 572 1197 l 535 1160 l 496 1143 l 554 1124 l 575 1104 l 575 1090 l 618 993 l 635 911 l 635 897 l 681 592 l 701 225 l 701 211 l 718 17 l 746 3 l 714 -8 l 594 -15 l 575 -22 l 488 -22 l 463 -4 l 482 6 l 526 13 l 515 58 l 492 106 l 468 299 l 454 342 l 322 358 l 279 158 l 260 118 l 260 51 l 328 44 l 339 32 l 272 18 l 267 18 l 125 -8 l 89 11 m 394 378 l 454 378 l 428 697 l 428 718 l 408 890 l 401 885 l 328 407 l 336 388 m 439 1140 l 447 1140 l 469 1156 l 471 1218 l 460 1307 l 469 1364 l 414 1378 l 392 1381 l 385 1333 l 388 1306 l 393 1154 "},"Æ":{"ha":964,"x_min":0,"x_max":0,"o":"m 200 46 l 201 99 l 215 151 l 215 192 l 221 218 l 239 361 l 228 371 l 85 390 l 103 354 l 128 338 l 200 326 l 217 310 l 189 244 l 135 244 l 82 299 l 61 358 l 42 399 l 42 425 l 82 425 l 239 403 l 249 411 l 369 1085 l 288 1085 l 263 1110 l 382 1124 l 401 1138 l 492 1144 l 554 1124 l 575 1104 l 575 1090 l 581 1076 l 667 1082 l 881 1051 l 890 1040 l 890 925 l 885 882 l 885 826 l 843 810 l 793 843 l 793 964 l 760 996 l 639 1019 l 594 1000 l 658 611 l 701 594 l 740 594 l 754 683 l 760 683 l 829 706 l 846 688 l 832 632 l 832 524 l 819 333 l 781 318 l 735 333 l 728 371 l 728 506 l 714 557 l 688 557 l 688 472 l 675 422 l 675 403 l 668 326 l 676 204 l 668 122 l 656 83 l 656 53 l 757 75 l 831 146 l 851 243 l 851 256 l 871 275 l 915 294 l 922 289 l 908 250 l 908 71 l 871 53 l 806 53 l 767 33 l 643 1 l 603 -18 l 571 -18 l 549 -14 l 550 -22 l 488 -22 l 463 -4 l 482 6 l 521 11 l 506 65 l 504 79 l 492 106 l 468 299 l 454 342 l 322 358 l 279 158 l 260 118 l 260 51 l 328 44 l 339 32 l 272 18 l 267 18 l 125 -8 l 89 11 m 394 378 l 454 378 l 428 697 l 428 718 l 408 890 l 401 885 l 328 407 l 336 388 "},"Ç":{"ha":596,"x_min":0,"x_max":0,"o":"m 56 356 l 56 582 l 42 699 l 58 813 l 75 829 l 135 929 l 271 1024 l 333 1054 l 401 994 l 451 924 l 472 913 l 481 954 l 526 1054 l 554 1054 l 554 1001 l 521 815 l 504 807 l 461 840 l 407 908 l 381 961 l 360 983 l 314 968 l 238 872 l 268 622 l 268 549 l 281 522 l 281 415 l 288 342 l 288 308 l 303 139 l 292 68 l 297 67 l 314 75 l 467 190 l 478 336 l 539 407 l 528 301 l 528 229 l 514 175 l 488 156 l 414 89 l 333 33 l 346 22 l 351 10 l 364 -4 l 364 -43 l 357 -62 l 357 -118 l 396 -132 l 417 -156 l 417 -182 l 388 -214 l 321 -304 l 290 -315 l 222 -272 l 179 -226 l 186 -201 l 211 -175 l 233 -168 l 250 -175 l 275 -207 l 275 -221 l 246 -221 l 246 -240 l 264 -260 l 292 -276 l 310 -233 l 344 -181 l 275 -143 l 215 -78 l 215 -24 l 218 -11 l 115 22 "},"È":{"ha":621,"x_min":0,"x_max":0,"o":"m 163 74 l 129 539 l 129 749 l 122 839 l 122 1029 l 57 1036 l 42 1053 l 63 1074 l 324 1090 l 538 1060 l 547 1049 l 547 933 l 542 890 l 542 835 l 500 818 l 450 851 l 450 972 l 417 1004 l 351 1024 l 344 1011 l 365 972 l 365 928 l 358 903 l 358 869 l 331 754 l 339 731 l 339 613 l 358 603 l 397 603 l 411 692 l 417 692 l 486 714 l 503 696 l 489 640 l 489 532 l 476 342 l 438 326 l 392 342 l 385 379 l 385 514 l 371 565 l 344 565 l 344 481 l 332 431 l 332 411 l 325 335 l 333 213 l 325 131 l 313 92 l 313 61 l 414 83 l 488 154 l 508 251 l 508 264 l 528 283 l 572 303 l 579 297 l 565 258 l 565 79 l 528 61 l 463 61 l 424 42 l 300 10 l 260 -10 l 228 -10 l 185 -1 m 424 1201 l 414 1178 l 328 1196 l 196 1261 l 206 1292 l 257 1321 l 301 1321 "},"É":{"ha":621,"x_min":0,"x_max":0,"o":"m 163 74 l 129 539 l 129 749 l 122 839 l 122 1029 l 57 1036 l 42 1053 l 63 1074 l 324 1090 l 538 1060 l 547 1049 l 547 933 l 542 890 l 542 835 l 500 818 l 450 851 l 450 972 l 417 1004 l 351 1024 l 344 1011 l 365 972 l 365 928 l 358 903 l 358 869 l 331 754 l 339 731 l 339 613 l 358 603 l 397 603 l 411 692 l 417 692 l 486 714 l 503 696 l 489 640 l 489 532 l 476 342 l 438 326 l 392 342 l 385 379 l 385 514 l 371 565 l 344 565 l 344 481 l 332 431 l 332 411 l 325 335 l 333 213 l 325 131 l 313 92 l 313 61 l 414 83 l 488 154 l 508 251 l 508 264 l 528 283 l 572 303 l 579 297 l 565 258 l 565 79 l 528 61 l 463 61 l 424 42 l 300 10 l 260 -10 l 228 -10 l 185 -1 m 318 1321 l 363 1321 l 414 1292 l 424 1261 l 292 1196 l 206 1178 l 196 1201 "},"Ê":{"ha":621,"x_min":0,"x_max":0,"o":"m 163 74 l 129 539 l 129 749 l 122 839 l 122 1029 l 57 1036 l 42 1053 l 63 1074 l 324 1090 l 538 1060 l 547 1049 l 547 933 l 542 890 l 542 835 l 500 818 l 450 851 l 450 972 l 417 1004 l 351 1024 l 344 1011 l 365 972 l 365 928 l 358 903 l 358 869 l 331 754 l 339 731 l 339 613 l 358 603 l 397 603 l 411 692 l 417 692 l 486 714 l 503 696 l 489 640 l 489 532 l 476 342 l 438 326 l 392 342 l 385 379 l 385 514 l 371 565 l 344 565 l 344 481 l 332 431 l 332 411 l 325 335 l 333 213 l 325 131 l 313 92 l 313 61 l 414 83 l 488 154 l 508 251 l 508 264 l 528 283 l 572 303 l 579 297 l 565 258 l 565 79 l 528 61 l 463 61 l 424 42 l 300 10 l 260 -10 l 228 -10 l 185 -1 m 169 1247 l 289 1354 l 314 1347 l 411 1303 l 449 1264 l 468 1222 l 457 1182 l 413 1192 l 378 1214 l 367 1215 l 300 1256 l 167 1178 l 151 1181 "},"Ë":{"ha":621,"x_min":0,"x_max":0,"o":"m 163 74 l 129 539 l 129 749 l 122 839 l 122 1029 l 57 1036 l 42 1053 l 63 1074 l 324 1090 l 538 1060 l 547 1049 l 547 933 l 542 890 l 542 835 l 500 818 l 450 851 l 450 972 l 417 1004 l 351 1024 l 344 1011 l 365 972 l 365 928 l 358 903 l 358 869 l 331 754 l 339 731 l 339 613 l 358 603 l 397 603 l 411 692 l 417 692 l 486 714 l 503 696 l 489 640 l 489 532 l 476 342 l 438 326 l 392 342 l 385 379 l 385 514 l 371 565 l 344 565 l 344 481 l 332 431 l 332 411 l 325 335 l 333 213 l 325 131 l 313 92 l 313 61 l 414 83 l 488 154 l 508 251 l 508 264 l 528 283 l 572 303 l 579 297 l 565 258 l 565 79 l 528 61 l 463 61 l 424 42 l 300 10 l 260 -10 l 228 -10 l 185 -1 m 146 1257 l 135 1293 l 156 1338 l 197 1338 l 225 1306 l 274 1269 l 274 1219 l 243 1186 l 214 1186 l 185 1204 m 392 1213 l 374 1226 l 361 1246 l 344 1265 l 344 1306 l 361 1325 l 392 1325 l 468 1282 l 486 1251 l 486 1217 l 419 1182 "},"Ì":{"ha":406,"x_min":0,"x_max":0,"o":"m 111 60 l 103 104 l 103 992 l 63 1010 l 113 1067 l 142 1078 l 331 1078 l 364 1071 l 351 1057 l 351 1032 l 267 1017 l 272 997 l 272 951 l 279 906 l 272 871 l 272 196 l 265 131 l 279 104 l 272 89 l 324 83 l 351 83 l 364 76 l 336 64 l 57 24 l 42 39 m 317 1201 l 307 1178 l 221 1196 l 89 1261 l 99 1292 l 150 1321 l 194 1321 "},"Í":{"ha":406,"x_min":0,"x_max":0,"o":"m 111 60 l 103 104 l 103 992 l 63 1010 l 113 1067 l 142 1078 l 331 1078 l 364 1071 l 351 1057 l 351 1032 l 267 1017 l 272 997 l 272 951 l 279 906 l 272 871 l 272 196 l 265 131 l 279 104 l 272 89 l 324 83 l 351 83 l 364 76 l 336 64 l 57 24 l 42 39 m 211 1321 l 256 1321 l 307 1292 l 317 1261 l 185 1196 l 99 1178 l 89 1201 "},"Î":{"ha":406,"x_min":0,"x_max":0,"o":"m 111 60 l 103 104 l 103 992 l 63 1010 l 113 1067 l 142 1078 l 331 1078 l 364 1071 l 351 1057 l 351 1032 l 267 1017 l 272 997 l 272 951 l 279 906 l 272 871 l 272 196 l 265 131 l 279 104 l 272 89 l 324 83 l 351 83 l 364 76 l 336 64 l 57 24 l 42 39 m 63 1247 l 182 1354 l 207 1347 l 304 1303 l 342 1264 l 361 1222 l 350 1182 l 306 1192 l 271 1214 l 260 1215 l 193 1256 l 60 1178 l 44 1181 "},"Ï":{"ha":406,"x_min":0,"x_max":0,"o":"m 111 60 l 103 104 l 103 992 l 63 1010 l 113 1067 l 142 1078 l 331 1078 l 364 1071 l 351 1057 l 351 1032 l 267 1017 l 272 997 l 272 951 l 279 906 l 272 871 l 272 196 l 265 131 l 279 104 l 272 89 l 324 83 l 351 83 l 364 76 l 336 64 l 57 24 l 42 39 m 39 1257 l 28 1293 l 49 1338 l 90 1338 l 118 1306 l 167 1269 l 167 1219 l 136 1186 l 107 1186 l 78 1204 m 285 1213 l 267 1226 l 254 1246 l 238 1265 l 238 1306 l 254 1325 l 285 1325 l 361 1282 l 379 1251 l 379 1217 l 313 1182 "},"Ñ":{"ha":929,"x_min":0,"x_max":0,"o":"m 669 60 l 614 160 l 575 197 l 501 342 l 432 532 l 346 715 l 339 735 l 325 749 l 319 729 l 319 676 l 290 461 l 290 310 l 283 236 l 283 185 l 278 146 l 283 139 l 283 115 l 261 82 l 197 65 l 61 65 l 42 72 l 68 100 l 101 115 l 108 204 l 108 315 l 129 631 l 129 676 l 150 906 l 150 1001 l 75 1011 l 65 1021 l 96 1031 l 246 1050 l 313 1018 l 332 979 l 332 924 l 453 657 l 554 486 l 667 213 l 722 157 l 696 400 l 696 414 l 690 428 l 690 454 l 683 493 l 683 519 l 676 585 l 676 671 l 669 749 l 669 761 l 656 828 l 649 900 l 642 913 l 631 956 l 542 986 l 542 996 l 676 1006 l 699 1017 l 724 1006 l 865 1006 l 876 994 l 831 972 l 769 972 l 736 940 l 729 790 l 736 585 l 764 313 l 757 272 l 785 124 l 804 106 l 888 89 l 858 60 l 757 53 l 708 43 l 690 53 m 307 1121 l 275 1178 l 275 1200 l 318 1243 l 436 1214 l 532 1168 l 547 1183 l 531 1238 l 540 1261 l 564 1261 l 582 1254 l 632 1243 l 643 1235 l 643 1203 l 624 1175 l 615 1156 l 579 1093 l 544 1093 l 481 1128 l 371 1168 l 347 1168 l 365 1140 l 365 1100 l 336 1071 l 313 1093 "},"Ò":{"ha":876,"x_min":0,"x_max":0,"o":"m 225 106 l 131 174 l 93 228 l 76 303 l 76 342 l 42 767 l 69 861 l 81 908 l 194 1054 l 260 1103 l 390 1113 l 500 1099 l 635 1043 l 644 1025 l 678 972 l 690 946 l 697 939 l 731 861 l 797 761 l 826 525 l 826 435 l 835 425 l 790 288 l 711 178 l 681 125 l 644 119 l 467 39 l 388 39 l 336 49 m 393 72 l 428 72 l 596 151 l 604 382 l 615 394 l 610 400 l 603 465 l 615 722 l 603 828 l 603 925 l 582 999 l 536 1044 l 482 1071 l 321 1071 l 314 1038 l 293 1011 l 242 892 l 231 458 l 244 329 l 244 151 l 267 131 m 551 1201 l 542 1178 l 456 1196 l 324 1261 l 333 1292 l 385 1321 l 429 1321 "},"Ó":{"ha":876,"x_min":0,"x_max":0,"o":"m 225 106 l 131 174 l 93 228 l 76 303 l 76 342 l 42 767 l 69 861 l 81 908 l 194 1054 l 260 1103 l 390 1113 l 500 1099 l 635 1043 l 644 1025 l 678 972 l 690 946 l 697 939 l 731 861 l 797 761 l 826 525 l 826 435 l 835 425 l 790 288 l 711 178 l 681 125 l 644 119 l 467 39 l 388 39 l 336 49 m 393 72 l 428 72 l 596 151 l 604 382 l 615 394 l 610 400 l 603 465 l 615 722 l 603 828 l 603 925 l 582 999 l 536 1044 l 482 1071 l 321 1071 l 314 1038 l 293 1011 l 242 892 l 231 458 l 244 329 l 244 151 l 267 131 m 446 1321 l 490 1321 l 542 1292 l 551 1261 l 419 1196 l 333 1178 l 324 1201 "},"Ô":{"ha":876,"x_min":0,"x_max":0,"o":"m 225 106 l 131 174 l 93 228 l 76 303 l 76 342 l 42 767 l 69 861 l 81 908 l 194 1054 l 260 1103 l 390 1113 l 500 1099 l 635 1043 l 644 1025 l 678 972 l 690 946 l 697 939 l 731 861 l 797 761 l 826 525 l 826 435 l 835 425 l 790 288 l 711 178 l 681 125 l 644 119 l 467 39 l 388 39 l 336 49 m 393 72 l 428 72 l 596 151 l 604 382 l 615 394 l 610 400 l 603 465 l 615 722 l 603 828 l 603 925 l 582 999 l 536 1044 l 482 1071 l 321 1071 l 314 1038 l 293 1011 l 242 892 l 231 458 l 244 329 l 244 151 l 267 131 m 264 1231 l 383 1338 l 408 1331 l 506 1286 l 543 1247 l 563 1206 l 551 1165 l 507 1175 l 472 1197 l 461 1199 l 394 1239 l 261 1161 l 246 1164 "},"Õ":{"ha":876,"x_min":0,"x_max":0,"o":"m 225 106 l 131 174 l 93 228 l 76 303 l 76 342 l 42 767 l 69 861 l 81 908 l 194 1054 l 260 1103 l 390 1113 l 500 1099 l 635 1043 l 644 1025 l 678 972 l 690 946 l 697 939 l 731 861 l 797 761 l 826 525 l 826 435 l 835 425 l 790 288 l 711 178 l 681 125 l 644 119 l 467 39 l 388 39 l 336 49 m 393 72 l 428 72 l 596 151 l 604 382 l 615 394 l 610 400 l 603 465 l 615 722 l 603 828 l 603 925 l 582 999 l 536 1044 l 482 1071 l 321 1071 l 314 1038 l 293 1011 l 242 892 l 231 458 l 244 329 l 244 151 l 267 131 m 231 1199 l 199 1256 l 199 1278 l 242 1321 l 360 1292 l 456 1246 l 471 1261 l 454 1315 l 464 1339 l 488 1339 l 506 1332 l 556 1321 l 567 1313 l 567 1281 l 547 1253 l 539 1233 l 503 1171 l 468 1171 l 404 1206 l 294 1246 l 271 1246 l 289 1218 l 289 1178 l 260 1149 l 236 1171 "},"Ö":{"ha":876,"x_min":0,"x_max":0,"o":"m 225 106 l 131 174 l 93 228 l 76 303 l 76 342 l 42 767 l 69 861 l 81 908 l 194 1054 l 260 1103 l 390 1113 l 500 1099 l 635 1043 l 644 1025 l 678 972 l 690 946 l 697 939 l 731 861 l 797 761 l 826 525 l 826 435 l 835 425 l 790 288 l 711 178 l 681 125 l 644 119 l 467 39 l 388 39 l 336 49 m 393 72 l 428 72 l 596 151 l 604 382 l 615 394 l 610 400 l 603 465 l 615 722 l 603 828 l 603 925 l 582 999 l 536 1044 l 482 1071 l 321 1071 l 314 1038 l 293 1011 l 242 892 l 231 458 l 244 329 l 244 151 l 267 131 m 274 1257 l 263 1293 l 283 1338 l 325 1338 l 353 1306 l 401 1269 l 401 1219 l 371 1186 l 342 1186 l 313 1204 m 519 1213 l 501 1226 l 489 1246 l 472 1265 l 472 1306 l 489 1325 l 519 1325 l 596 1282 l 614 1251 l 614 1217 l 547 1182 "},"Ø":{"ha":876,"x_min":0,"x_max":0,"o":"m 267 83 l 253 47 l 231 58 l 242 96 l 225 106 l 131 174 l 93 228 l 76 303 l 76 342 l 42 767 l 69 861 l 81 908 l 194 1054 l 260 1103 l 390 1113 l 500 1099 l 508 1094 l 519 1136 l 556 1111 l 546 1079 l 635 1043 l 644 1025 l 678 972 l 690 946 l 697 939 l 731 861 l 797 761 l 826 525 l 826 435 l 835 425 l 790 288 l 711 178 l 681 125 l 644 119 l 467 39 l 388 39 l 336 49 m 281 124 l 393 72 l 428 72 l 596 151 l 604 382 l 615 394 l 610 400 l 603 465 l 615 722 l 603 828 l 603 925 l 582 999 l 535 1044 l 433 706 l 383 456 l 322 233 m 428 783 l 500 1061 l 482 1071 l 321 1071 l 314 1038 l 293 1011 l 242 892 l 231 458 l 244 329 l 244 151 l 256 140 l 314 304 l 392 669 "},"Ù":{"ha":976,"x_min":0,"x_max":0,"o":"m 232 83 l 178 140 l 150 247 l 124 647 l 136 713 l 136 1053 l 49 1081 l 42 1094 l 56 1101 l 157 1101 l 258 1081 l 417 1022 l 478 982 l 478 964 l 367 989 l 376 840 l 376 446 l 382 375 l 382 339 l 392 250 l 376 189 l 390 158 l 506 119 l 590 75 l 607 92 l 640 140 l 697 207 l 710 233 l 710 671 l 724 806 l 724 1024 l 710 1038 l 658 1046 l 628 1063 l 628 1089 l 724 1089 l 868 1072 l 907 1053 l 935 1042 l 935 1018 l 832 1018 l 825 960 l 806 911 l 813 585 l 792 275 l 792 233 l 764 204 l 751 176 l 731 147 l 682 57 l 515 6 l 382 6 m 601 1201 l 592 1178 l 506 1196 l 374 1261 l 383 1292 l 435 1321 l 479 1321 "},"Ú":{"ha":976,"x_min":0,"x_max":0,"o":"m 232 83 l 178 140 l 150 247 l 124 647 l 136 713 l 136 1053 l 49 1081 l 42 1094 l 56 1101 l 157 1101 l 258 1081 l 417 1022 l 478 982 l 478 964 l 367 989 l 376 840 l 376 446 l 382 375 l 382 339 l 392 250 l 376 189 l 390 158 l 506 119 l 590 75 l 607 92 l 640 140 l 697 207 l 710 233 l 710 671 l 724 806 l 724 1024 l 710 1038 l 658 1046 l 628 1063 l 628 1089 l 724 1089 l 868 1072 l 907 1053 l 935 1042 l 935 1018 l 832 1018 l 825 960 l 806 911 l 813 585 l 792 275 l 792 233 l 764 204 l 751 176 l 731 147 l 682 57 l 515 6 l 382 6 m 496 1321 l 540 1321 l 592 1292 l 601 1261 l 469 1196 l 383 1178 l 374 1201 "},"Û":{"ha":976,"x_min":0,"x_max":0,"o":"m 232 83 l 178 140 l 150 247 l 124 647 l 136 713 l 136 1053 l 49 1081 l 42 1094 l 56 1101 l 157 1101 l 258 1081 l 417 1022 l 478 982 l 478 964 l 367 989 l 376 840 l 376 446 l 382 375 l 382 339 l 392 250 l 376 189 l 390 158 l 506 119 l 590 75 l 607 92 l 640 140 l 697 207 l 710 233 l 710 671 l 724 806 l 724 1024 l 710 1038 l 658 1046 l 628 1063 l 628 1089 l 724 1089 l 868 1072 l 907 1053 l 935 1042 l 935 1018 l 832 1018 l 825 960 l 806 911 l 813 585 l 792 275 l 792 233 l 764 204 l 751 176 l 731 147 l 682 57 l 515 6 l 382 6 m 347 1247 l 467 1354 l 492 1347 l 589 1303 l 626 1264 l 646 1222 l 635 1182 l 590 1192 l 556 1214 l 544 1215 l 478 1256 l 344 1178 l 329 1181 "},"Ü":{"ha":976,"x_min":0,"x_max":0,"o":"m 232 83 l 178 140 l 150 247 l 124 647 l 136 713 l 136 1053 l 49 1081 l 42 1094 l 56 1101 l 157 1101 l 258 1081 l 417 1022 l 478 982 l 478 964 l 367 989 l 376 840 l 376 446 l 382 375 l 382 339 l 392 250 l 376 189 l 390 158 l 506 119 l 590 75 l 607 92 l 640 140 l 697 207 l 710 233 l 710 671 l 724 806 l 724 1024 l 710 1038 l 658 1046 l 628 1063 l 628 1089 l 724 1089 l 868 1072 l 907 1053 l 935 1042 l 935 1018 l 832 1018 l 825 960 l 806 911 l 813 585 l 792 275 l 792 233 l 764 204 l 751 176 l 731 147 l 682 57 l 515 6 l 382 6 m 324 1257 l 313 1293 l 333 1338 l 375 1338 l 403 1306 l 451 1269 l 451 1219 l 421 1186 l 392 1186 l 363 1204 m 569 1213 l 551 1226 l 539 1246 l 522 1265 l 522 1306 l 539 1325 l 569 1325 l 646 1282 l 664 1251 l 664 1217 l 597 1182 "},"Ý":{"ha":890,"x_min":0,"x_max":0,"o":"m 388 51 l 388 63 l 394 76 l 388 92 l 340 629 l 340 756 l 319 797 l 136 1067 l 60 1067 l 42 1086 l 231 1138 l 275 1138 l 335 1096 l 374 1044 l 414 1003 l 442 947 l 500 847 l 513 847 l 611 1024 l 633 1053 l 667 1124 l 592 1131 l 578 1144 l 801 1171 l 849 1153 l 831 1144 l 760 1124 l 742 1094 l 701 1053 l 694 1031 l 550 763 l 524 724 l 524 163 l 514 78 l 575 63 l 536 42 l 428 21 l 326 21 l 301 33 m 453 1321 l 497 1321 l 549 1292 l 558 1261 l 426 1196 l 340 1178 l 331 1201 "},"ß":{"ha":653,"x_min":0,"x_max":0,"o":"m 69 18 l 50 65 l 42 332 l 63 625 l 71 631 l 83 1061 l 114 1118 l 358 1114 l 425 1081 l 457 1069 l 465 1047 l 451 1026 l 425 953 l 363 828 l 418 788 l 499 707 l 569 654 l 592 621 l 611 554 l 611 407 l 604 314 l 604 294 l 592 214 l 585 200 l 575 157 l 551 107 l 544 88 l 504 47 l 479 39 l 444 85 l 444 100 l 451 154 l 451 347 l 458 381 l 458 521 l 468 658 l 343 764 l 326 807 l 317 932 l 374 1058 l 325 1086 l 222 1090 l 222 978 l 224 969 l 210 939 l 263 524 l 263 444 l 282 238 l 282 151 l 275 136 l 279 108 l 254 10 l 226 6 l 110 6 "},"à":{"ha":747,"x_min":0,"x_max":0,"o":"m 63 194 l 42 238 l 54 264 l 61 283 l 107 356 l 119 381 l 185 472 l 250 538 l 276 538 l 415 488 l 426 499 l 429 607 l 446 763 l 264 786 l 228 728 l 211 672 l 203 611 l 210 611 l 254 657 l 264 689 l 314 639 l 314 592 l 265 592 l 197 546 l 179 546 l 171 565 l 171 639 l 247 831 l 514 803 l 568 786 l 600 754 l 585 738 l 611 106 l 642 49 l 683 108 l 706 92 l 667 25 l 622 22 l 574 39 l 478 133 l 368 35 l 332 18 l 322 -4 l 283 10 m 289 35 l 304 35 l 463 168 l 446 225 l 446 244 l 426 394 l 413 407 l 388 407 l 335 414 l 267 394 l 211 350 l 211 288 l 276 49 m 563 911 l 553 888 l 467 906 l 335 971 l 344 1001 l 396 1031 l 440 1031 "},"á":{"ha":747,"x_min":0,"x_max":0,"o":"m 63 194 l 42 238 l 54 264 l 61 283 l 107 356 l 119 381 l 185 472 l 250 538 l 276 538 l 415 488 l 426 499 l 429 607 l 446 763 l 264 786 l 228 728 l 211 672 l 203 611 l 210 611 l 254 657 l 264 689 l 314 639 l 314 592 l 265 592 l 197 546 l 179 546 l 171 565 l 171 639 l 247 831 l 514 803 l 568 786 l 600 754 l 585 738 l 611 106 l 642 49 l 683 108 l 706 92 l 667 25 l 622 22 l 574 39 l 478 133 l 368 35 l 332 18 l 322 -4 l 283 10 m 289 35 l 304 35 l 463 168 l 446 225 l 446 244 l 426 394 l 413 407 l 388 407 l 335 414 l 267 394 l 211 350 l 211 288 l 276 49 m 382 1050 l 426 1050 l 478 1021 l 488 990 l 356 925 l 269 907 l 260 931 "},"â":{"ha":747,"x_min":0,"x_max":0,"o":"m 63 194 l 42 238 l 54 264 l 61 283 l 107 356 l 119 381 l 185 472 l 250 538 l 276 538 l 415 488 l 426 499 l 429 607 l 446 763 l 264 786 l 228 728 l 211 672 l 203 611 l 210 611 l 254 657 l 264 689 l 314 639 l 314 592 l 265 592 l 197 546 l 179 546 l 171 565 l 171 639 l 247 831 l 514 803 l 568 786 l 600 754 l 585 738 l 611 106 l 642 49 l 683 108 l 706 92 l 667 25 l 622 22 l 574 39 l 478 133 l 368 35 l 332 18 l 322 -4 l 283 10 m 289 35 l 304 35 l 463 168 l 446 225 l 446 244 l 426 394 l 413 407 l 388 407 l 335 414 l 267 394 l 211 350 l 211 288 l 276 49 m 286 951 l 406 1058 l 431 1051 l 528 1007 l 565 968 l 585 926 l 574 886 l 529 896 l 494 918 l 483 919 l 417 960 l 283 882 l 268 885 "},"ã":{"ha":747,"x_min":0,"x_max":0,"o":"m 63 194 l 42 238 l 54 264 l 61 283 l 107 356 l 119 381 l 185 472 l 250 538 l 276 538 l 415 488 l 426 499 l 429 607 l 446 763 l 264 786 l 228 728 l 211 672 l 203 611 l 210 611 l 254 657 l 264 689 l 314 639 l 314 592 l 265 592 l 197 546 l 179 546 l 171 565 l 171 639 l 247 831 l 514 803 l 568 786 l 600 754 l 585 738 l 611 106 l 642 49 l 683 108 l 706 92 l 667 25 l 622 22 l 574 39 l 478 133 l 368 35 l 332 18 l 322 -4 l 283 10 m 289 35 l 304 35 l 463 168 l 446 225 l 446 244 l 426 394 l 413 407 l 388 407 l 335 414 l 267 394 l 211 350 l 211 288 l 276 49 m 265 922 l 233 979 l 233 1001 l 276 1044 l 394 1015 l 490 969 l 506 985 l 489 1039 l 499 1063 l 522 1063 l 540 1056 l 590 1044 l 601 1036 l 601 1004 l 582 976 l 574 957 l 538 894 l 503 894 l 439 929 l 329 969 l 306 969 l 324 942 l 324 901 l 294 872 l 271 894 "},"ä":{"ha":747,"x_min":0,"x_max":0,"o":"m 63 194 l 42 238 l 54 264 l 61 283 l 107 356 l 119 381 l 185 472 l 250 538 l 276 538 l 415 488 l 426 499 l 429 607 l 446 763 l 264 786 l 228 728 l 211 672 l 203 611 l 210 611 l 254 657 l 264 689 l 314 639 l 314 592 l 265 592 l 197 546 l 179 546 l 171 565 l 171 639 l 247 831 l 514 803 l 568 786 l 600 754 l 585 738 l 611 106 l 642 49 l 683 108 l 706 92 l 667 25 l 622 22 l 574 39 l 478 133 l 368 35 l 332 18 l 322 -4 l 283 10 m 289 35 l 304 35 l 463 168 l 446 225 l 446 244 l 426 394 l 413 407 l 388 407 l 335 414 l 267 394 l 211 350 l 211 288 l 276 49 m 250 986 l 239 1022 l 260 1067 l 301 1067 l 329 1035 l 378 999 l 378 949 l 347 915 l 318 915 l 289 933 m 496 942 l 478 956 l 465 975 l 449 994 l 449 1035 l 465 1054 l 496 1054 l 572 1011 l 590 981 l 590 946 l 524 911 "},"å":{"ha":781,"x_min":0,"x_max":0,"o":"m 63 194 l 42 238 l 54 264 l 61 283 l 107 356 l 119 381 l 185 472 l 250 538 l 276 538 l 415 488 l 426 499 l 429 607 l 446 763 l 264 786 l 228 728 l 211 672 l 203 611 l 210 611 l 254 657 l 264 689 l 314 639 l 314 592 l 265 592 l 197 546 l 179 546 l 171 565 l 171 639 l 247 831 l 514 803 l 568 786 l 600 754 l 585 738 l 611 106 l 642 49 l 683 108 l 706 92 l 667 25 l 622 22 l 574 39 l 478 133 l 368 35 l 332 18 l 322 -4 l 283 10 m 289 35 l 304 35 l 463 168 l 446 225 l 446 244 l 426 394 l 413 407 l 388 407 l 335 414 l 267 394 l 211 350 l 211 288 l 276 49 m 294 911 l 285 926 l 271 1021 l 278 1069 l 292 1088 l 347 1126 l 364 1131 l 411 1131 l 478 1115 l 517 1093 l 536 1054 l 540 1024 l 550 1006 l 550 992 l 560 950 l 556 938 l 518 900 l 438 865 l 421 865 l 394 872 m 428 879 l 453 896 l 454 958 l 443 1047 l 453 1104 l 397 1118 l 375 1121 l 368 1074 l 371 1046 l 376 894 "},"æ":{"ha":1047,"x_min":0,"x_max":0,"o":"m 553 49 l 522 88 l 478 133 l 368 35 l 332 18 l 322 -4 l 283 10 l 63 194 l 42 238 l 54 264 l 61 283 l 107 356 l 119 381 l 185 472 l 250 538 l 276 538 l 415 488 l 426 499 l 429 607 l 446 763 l 264 786 l 228 728 l 211 672 l 203 611 l 210 611 l 254 657 l 264 689 l 314 639 l 314 592 l 265 592 l 197 546 l 179 546 l 171 565 l 171 639 l 247 831 l 514 803 l 569 783 l 576 789 l 668 822 l 729 822 l 857 793 l 922 744 l 967 560 l 992 500 l 979 465 l 949 456 l 746 428 l 690 428 l 663 414 l 676 335 l 664 272 l 678 232 l 678 178 l 703 72 l 726 64 l 836 136 l 900 247 l 885 267 l 867 301 l 844 321 l 810 289 l 779 250 l 828 253 l 822 232 l 746 219 l 717 239 l 735 272 l 772 307 l 801 346 l 836 358 l 910 358 l 949 340 l 964 314 l 994 304 l 1006 294 l 928 161 l 885 124 l 822 83 l 779 43 l 715 14 l 653 14 l 594 25 m 289 35 l 304 35 l 463 168 l 446 225 l 446 244 l 426 394 l 413 407 l 388 407 l 335 414 l 267 394 l 211 350 l 211 288 l 276 49 m 818 468 l 803 576 l 797 593 l 797 679 l 792 690 l 778 747 l 676 754 l 633 708 l 615 674 l 615 644 l 628 617 l 647 513 l 647 485 l 653 461 l 653 449 "},"ç":{"ha":628,"x_min":0,"x_max":0,"o":"m 194 -226 l 201 -201 l 226 -175 l 249 -168 l 265 -175 l 290 -207 l 290 -221 l 261 -221 l 261 -240 l 279 -260 l 307 -276 l 325 -233 l 360 -181 l 290 -143 l 231 -78 l 231 -24 l 247 36 l 129 103 l 111 142 l 79 249 l 42 443 l 42 575 l 54 601 l 140 753 l 240 817 l 360 851 l 389 851 l 397 826 l 410 814 l 422 794 l 454 757 l 481 713 l 499 713 l 542 814 l 568 814 l 583 783 l 561 725 l 536 561 l 518 553 l 460 597 l 410 732 l 392 750 l 379 776 l 367 776 l 354 763 l 342 757 l 310 725 l 247 624 l 239 485 l 285 247 l 332 106 l 350 88 l 508 174 l 518 324 l 539 367 l 578 367 l 586 342 l 586 190 l 572 161 l 543 146 l 393 43 l 353 29 l 361 22 l 367 10 l 379 -4 l 379 -43 l 372 -62 l 372 -118 l 411 -132 l 432 -156 l 432 -182 l 403 -214 l 336 -304 l 306 -315 l 238 -272 "},"è":{"ha":658,"x_min":0,"x_max":0,"o":"m 164 60 l 113 129 l 88 226 l 56 408 l 56 421 l 42 604 l 58 665 l 94 714 l 125 743 l 157 778 l 188 800 l 279 833 l 340 833 l 468 804 l 533 756 l 578 571 l 603 511 l 590 476 l 560 467 l 357 439 l 301 439 l 274 425 l 288 346 l 275 283 l 289 243 l 289 189 l 317 71 l 331 71 l 447 147 l 511 258 l 496 278 l 478 313 l 456 332 l 421 300 l 390 261 l 439 264 l 433 243 l 357 231 l 328 250 l 346 283 l 383 318 l 413 357 l 447 369 l 521 369 l 560 351 l 575 325 l 606 315 l 617 306 l 539 172 l 496 135 l 433 94 l 390 54 l 326 25 l 264 25 l 206 36 m 429 479 l 414 588 l 408 604 l 408 690 l 403 701 l 389 758 l 288 765 l 244 719 l 226 685 l 226 656 l 239 628 l 258 524 l 258 496 l 264 472 l 264 460 m 443 931 l 433 907 l 347 925 l 215 990 l 225 1021 l 276 1050 l 321 1050 "},"é":{"ha":658,"x_min":0,"x_max":0,"o":"m 164 60 l 113 129 l 88 226 l 56 408 l 56 421 l 42 604 l 58 665 l 94 714 l 125 743 l 157 778 l 188 800 l 279 833 l 340 833 l 468 804 l 533 756 l 578 571 l 603 511 l 590 476 l 560 467 l 357 439 l 301 439 l 274 425 l 288 346 l 275 283 l 289 243 l 289 189 l 317 71 l 331 71 l 447 147 l 511 258 l 496 278 l 478 313 l 456 332 l 421 300 l 390 261 l 439 264 l 433 243 l 357 231 l 328 250 l 346 283 l 383 318 l 413 357 l 447 369 l 521 369 l 560 351 l 575 325 l 606 315 l 617 306 l 539 172 l 496 135 l 433 94 l 390 54 l 326 25 l 264 25 l 206 36 m 429 479 l 414 588 l 408 604 l 408 690 l 403 701 l 389 758 l 288 765 l 244 719 l 226 685 l 226 656 l 239 628 l 258 524 l 258 496 l 264 472 l 264 460 m 338 1050 l 382 1050 l 433 1021 l 443 990 l 311 925 l 225 907 l 215 931 "},"ê":{"ha":658,"x_min":0,"x_max":0,"o":"m 164 60 l 113 129 l 88 226 l 56 408 l 56 421 l 42 604 l 58 665 l 94 714 l 125 743 l 157 778 l 188 800 l 279 833 l 340 833 l 468 804 l 533 756 l 578 571 l 603 511 l 590 476 l 560 467 l 357 439 l 301 439 l 274 425 l 288 346 l 275 283 l 289 243 l 289 189 l 317 71 l 331 71 l 447 147 l 511 258 l 496 278 l 478 313 l 456 332 l 421 300 l 390 261 l 439 264 l 433 243 l 357 231 l 328 250 l 346 283 l 383 318 l 413 357 l 447 369 l 521 369 l 560 351 l 575 325 l 606 315 l 617 306 l 539 172 l 496 135 l 433 94 l 390 54 l 326 25 l 264 25 l 206 36 m 429 479 l 414 588 l 408 604 l 408 690 l 403 701 l 389 758 l 288 765 l 244 719 l 226 685 l 226 656 l 239 628 l 258 524 l 258 496 l 264 472 l 264 460 m 189 976 l 308 1083 l 333 1076 l 431 1032 l 468 993 l 488 951 l 476 911 l 432 921 l 397 943 l 386 944 l 319 985 l 186 907 l 171 910 "},"ë":{"ha":658,"x_min":0,"x_max":0,"o":"m 164 60 l 113 129 l 88 226 l 56 408 l 56 421 l 42 604 l 58 665 l 94 714 l 125 743 l 157 778 l 188 800 l 279 833 l 340 833 l 468 804 l 533 756 l 578 571 l 603 511 l 590 476 l 560 467 l 357 439 l 301 439 l 274 425 l 288 346 l 275 283 l 289 243 l 289 189 l 317 71 l 331 71 l 447 147 l 511 258 l 496 278 l 478 313 l 456 332 l 421 300 l 390 261 l 439 264 l 433 243 l 357 231 l 328 250 l 346 283 l 383 318 l 413 357 l 447 369 l 521 369 l 560 351 l 575 325 l 606 315 l 617 306 l 539 172 l 496 135 l 433 94 l 390 54 l 326 25 l 264 25 l 206 36 m 429 479 l 414 588 l 408 604 l 408 690 l 403 701 l 389 758 l 288 765 l 244 719 l 226 685 l 226 656 l 239 628 l 258 524 l 258 496 l 264 472 l 264 460 m 164 986 l 153 1022 l 174 1067 l 215 1067 l 243 1035 l 292 999 l 292 949 l 261 915 l 232 915 l 203 933 m 410 942 l 392 956 l 379 975 l 363 994 l 363 1035 l 379 1054 l 410 1054 l 486 1011 l 504 981 l 504 946 l 438 911 "},"ì":{"ha":432,"x_min":0,"x_max":0,"o":"m 88 56 l 132 65 l 107 140 l 90 486 l 86 525 l 85 693 l 75 768 l 43 779 l 42 796 l 306 771 l 324 742 l 239 736 l 242 718 l 269 669 l 276 529 l 281 501 l 281 453 l 283 435 l 282 381 l 286 350 l 283 310 l 292 244 l 278 207 l 285 156 l 272 74 l 311 67 l 328 43 l 214 26 l 89 44 m 293 933 l 283 910 l 197 928 l 65 993 l 75 1024 l 126 1053 l 171 1053 "},"í":{"ha":432,"x_min":0,"x_max":0,"o":"m 88 56 l 132 65 l 107 140 l 90 486 l 86 525 l 85 693 l 75 768 l 43 779 l 42 796 l 306 771 l 324 742 l 239 736 l 242 718 l 269 669 l 276 529 l 281 501 l 281 453 l 283 435 l 282 381 l 286 350 l 283 310 l 292 244 l 278 207 l 285 156 l 272 74 l 311 67 l 328 43 l 214 26 l 89 44 m 224 1050 l 268 1050 l 319 1021 l 329 990 l 197 925 l 111 907 l 101 931 "},"î":{"ha":369,"x_min":0,"x_max":0,"o":"m 88 56 l 132 65 l 107 140 l 90 486 l 86 525 l 85 693 l 75 768 l 43 779 l 42 796 l 306 771 l 324 742 l 239 736 l 242 718 l 269 669 l 276 529 l 281 501 l 281 453 l 283 435 l 282 381 l 286 350 l 283 310 l 292 244 l 278 207 l 285 156 l 272 74 l 311 67 l 328 43 l 214 26 l 89 44 m 44 976 l 164 1083 l 189 1076 l 286 1032 l 324 993 l 343 951 l 332 911 l 288 921 l 253 943 l 242 944 l 175 985 l 42 907 l 26 910 "},"ï":{"ha":369,"x_min":0,"x_max":0,"o":"m 88 56 l 132 65 l 107 140 l 90 486 l 86 525 l 85 693 l 75 768 l 43 779 l 42 796 l 306 771 l 324 742 l 239 736 l 242 718 l 269 669 l 276 529 l 281 501 l 281 453 l 283 435 l 282 381 l 286 350 l 283 310 l 292 244 l 278 207 l 285 156 l 272 74 l 311 67 l 328 43 l 214 26 l 89 44 m 21 986 l 10 1022 l 31 1067 l 72 1067 l 100 1035 l 149 999 l 149 949 l 118 915 l 89 915 l 60 933 m 267 942 l 249 956 l 236 975 l 219 994 l 219 1035 l 236 1054 l 267 1054 l 343 1011 l 361 981 l 361 946 l 294 911 "},"ñ":{"ha":838,"x_min":0,"x_max":0,"o":"m 504 86 l 504 169 l 497 215 l 492 222 l 492 678 l 439 678 l 383 619 l 276 407 l 276 339 l 282 299 l 276 247 l 269 235 l 269 215 l 264 203 l 264 157 l 256 138 l 264 138 l 264 94 l 285 60 l 101 32 l 86 49 l 96 60 l 132 79 l 119 247 l 119 268 l 113 379 l 113 721 l 89 731 l 42 782 l 54 796 l 174 788 l 192 782 l 278 767 l 308 733 l 300 724 l 282 718 l 282 672 l 294 604 l 378 724 l 532 724 l 594 704 l 600 697 l 625 697 l 667 653 l 667 626 l 685 571 l 678 528 l 678 508 l 672 489 l 685 476 l 685 210 l 678 189 l 678 106 l 667 99 l 667 86 l 678 92 l 678 79 l 721 79 l 778 110 l 796 71 l 756 49 l 660 26 l 588 26 l 543 43 m 672 111 l 672 124 l 643 124 m 275 864 l 243 921 l 243 943 l 286 986 l 404 957 l 500 911 l 515 926 l 499 981 l 508 1004 l 532 1004 l 550 997 l 600 986 l 611 978 l 611 946 l 592 918 l 583 899 l 547 836 l 513 836 l 449 871 l 339 911 l 315 911 l 333 883 l 333 843 l 304 814 l 281 836 "},"ò":{"ha":674,"x_min":0,"x_max":0,"o":"m 92 122 l 71 168 l 42 474 l 57 629 l 85 690 l 199 814 l 233 828 l 331 828 l 467 779 l 546 707 l 571 639 l 571 626 l 583 581 l 594 483 l 613 425 l 613 379 l 618 346 l 618 339 l 632 244 l 624 207 l 583 183 l 383 -26 l 349 -26 l 294 -6 m 364 17 l 414 72 l 432 124 l 439 138 l 469 250 l 446 535 l 446 710 l 415 742 l 300 788 l 256 797 l 247 769 l 228 750 l 210 690 l 189 643 l 199 554 l 199 404 l 217 247 l 217 111 l 258 68 m 450 931 l 440 907 l 354 925 l 222 990 l 232 1021 l 283 1050 l 328 1050 "},"ó":{"ha":674,"x_min":0,"x_max":0,"o":"m 92 122 l 71 168 l 42 474 l 57 629 l 85 690 l 199 814 l 233 828 l 331 828 l 467 779 l 546 707 l 571 639 l 571 626 l 583 581 l 594 483 l 613 425 l 613 379 l 618 346 l 618 339 l 632 244 l 624 207 l 583 183 l 383 -26 l 349 -26 l 294 -6 m 364 17 l 414 72 l 432 124 l 439 138 l 469 250 l 446 535 l 446 710 l 415 742 l 300 788 l 256 797 l 247 769 l 228 750 l 210 690 l 189 643 l 199 554 l 199 404 l 217 247 l 217 111 l 258 68 m 344 1050 l 389 1050 l 440 1021 l 450 990 l 318 925 l 232 907 l 222 931 "},"ô":{"ha":674,"x_min":0,"x_max":0,"o":"m 92 122 l 71 168 l 42 474 l 57 629 l 85 690 l 199 814 l 233 828 l 331 828 l 467 779 l 546 707 l 571 639 l 571 626 l 583 581 l 594 483 l 613 425 l 613 379 l 618 346 l 618 339 l 632 244 l 624 207 l 583 183 l 383 -26 l 349 -26 l 294 -6 m 364 17 l 414 72 l 432 124 l 439 138 l 469 250 l 446 535 l 446 710 l 415 742 l 300 788 l 256 797 l 247 769 l 228 750 l 210 690 l 189 643 l 199 554 l 199 404 l 217 247 l 217 111 l 258 68 m 146 954 l 265 1061 l 290 1054 l 388 1010 l 425 971 l 444 929 l 433 889 l 389 899 l 354 921 l 343 922 l 276 963 l 143 885 l 128 888 "},"õ":{"ha":674,"x_min":0,"x_max":0,"o":"m 92 122 l 71 168 l 42 474 l 57 629 l 85 690 l 199 814 l 233 828 l 331 828 l 467 779 l 546 707 l 571 639 l 571 626 l 583 581 l 594 483 l 613 425 l 613 379 l 618 346 l 618 339 l 632 244 l 624 207 l 583 183 l 383 -26 l 349 -26 l 294 -6 m 364 17 l 414 72 l 432 124 l 439 138 l 469 250 l 446 535 l 446 710 l 415 742 l 300 788 l 256 797 l 247 769 l 228 750 l 210 690 l 189 643 l 199 554 l 199 404 l 217 247 l 217 111 l 258 68 m 124 925 l 92 982 l 92 1004 l 135 1047 l 253 1018 l 349 972 l 364 988 l 347 1042 l 357 1065 l 381 1065 l 399 1058 l 449 1047 l 460 1039 l 460 1007 l 440 979 l 432 960 l 396 897 l 361 897 l 297 932 l 188 972 l 164 972 l 182 944 l 182 904 l 153 875 l 129 897 "},"ö":{"ha":674,"x_min":0,"x_max":0,"o":"m 92 122 l 71 168 l 42 474 l 57 629 l 85 690 l 199 814 l 233 828 l 331 828 l 467 779 l 546 707 l 571 639 l 571 626 l 583 581 l 594 483 l 613 425 l 613 379 l 618 346 l 618 339 l 632 244 l 624 207 l 583 183 l 383 -26 l 349 -26 l 294 -6 m 364 17 l 414 72 l 432 124 l 439 138 l 469 250 l 446 535 l 446 710 l 415 742 l 300 788 l 256 797 l 247 769 l 228 750 l 210 690 l 189 643 l 199 554 l 199 404 l 217 247 l 217 111 l 258 68 m 122 969 l 111 1006 l 132 1050 l 174 1050 l 201 1018 l 250 982 l 250 932 l 219 899 l 190 899 l 161 917 m 368 925 l 350 939 l 338 958 l 321 978 l 321 1018 l 338 1038 l 368 1038 l 444 994 l 463 964 l 463 929 l 396 894 "},"ø":{"ha":674,"x_min":0,"x_max":0,"o":"m 226 38 l 211 -33 l 189 -36 l 206 50 l 92 122 l 71 168 l 42 474 l 57 629 l 85 690 l 199 814 l 233 828 l 331 828 l 379 810 l 392 861 l 431 861 l 410 799 l 467 779 l 546 707 l 571 639 l 571 626 l 583 581 l 594 483 l 613 425 l 613 379 l 618 346 l 618 339 l 632 244 l 624 207 l 583 183 l 383 -26 l 349 -26 l 294 -6 m 364 17 l 414 72 l 432 124 l 439 138 l 469 250 l 446 535 l 446 710 l 415 742 l 393 750 l 375 694 l 333 492 l 325 378 l 258 178 l 238 89 l 258 68 m 368 760 l 300 788 l 256 797 l 247 769 l 228 750 l 210 690 l 189 643 l 199 554 l 199 404 l 217 247 l 217 110 l 242 236 l 278 375 "},"ù":{"ha":782,"x_min":0,"x_max":0,"o":"m 525 29 l 542 40 l 536 68 l 524 215 l 501 165 l 490 126 l 454 56 l 454 50 l 431 11 l 407 0 l 363 0 l 293 -7 l 268 0 l 119 86 l 61 142 l 43 193 l 71 743 l 42 772 l 42 790 l 89 782 l 164 761 l 239 722 l 263 679 l 263 635 l 249 615 l 257 586 l 250 549 l 250 514 l 246 488 l 246 460 l 233 301 l 233 197 l 228 176 l 228 135 l 297 104 l 382 51 l 519 415 l 519 564 l 507 696 l 501 711 l 501 751 l 617 751 l 690 736 l 710 718 l 717 696 l 658 696 l 669 683 l 669 657 l 676 592 l 676 494 l 682 475 l 682 374 l 700 188 l 710 143 l 710 42 l 740 29 l 740 0 l 594 -18 l 549 -8 m 504 931 l 494 907 l 408 925 l 276 990 l 286 1021 l 338 1050 l 382 1050 "},"ú":{"ha":782,"x_min":0,"x_max":0,"o":"m 525 29 l 542 40 l 536 68 l 524 215 l 501 165 l 490 126 l 454 56 l 454 50 l 431 11 l 407 0 l 363 0 l 293 -7 l 268 0 l 119 86 l 61 142 l 43 193 l 71 743 l 42 772 l 42 790 l 89 782 l 164 761 l 239 722 l 263 679 l 263 635 l 249 615 l 257 586 l 250 549 l 250 514 l 246 488 l 246 460 l 233 301 l 233 197 l 228 176 l 228 135 l 297 104 l 382 51 l 519 415 l 519 564 l 507 696 l 501 711 l 501 751 l 617 751 l 690 736 l 710 718 l 717 696 l 658 696 l 669 683 l 669 657 l 676 592 l 676 494 l 682 475 l 682 374 l 700 188 l 710 143 l 710 42 l 740 29 l 740 0 l 594 -18 l 549 -8 m 399 1050 l 443 1050 l 494 1021 l 504 990 l 372 925 l 286 907 l 276 931 "},"û":{"ha":782,"x_min":0,"x_max":0,"o":"m 525 29 l 542 40 l 536 68 l 524 215 l 501 165 l 490 126 l 454 56 l 454 50 l 431 11 l 407 0 l 363 0 l 293 -7 l 268 0 l 119 86 l 61 142 l 43 193 l 71 743 l 42 772 l 42 790 l 89 782 l 164 761 l 239 722 l 263 679 l 263 635 l 249 615 l 257 586 l 250 549 l 250 514 l 246 488 l 246 460 l 233 301 l 233 197 l 228 176 l 228 135 l 297 104 l 382 51 l 519 415 l 519 564 l 507 696 l 501 711 l 501 751 l 617 751 l 690 736 l 710 718 l 717 696 l 658 696 l 669 683 l 669 657 l 676 592 l 676 494 l 682 475 l 682 374 l 700 188 l 710 143 l 710 42 l 740 29 l 740 0 l 594 -18 l 549 -8 m 250 976 l 369 1083 l 394 1076 l 492 1032 l 529 993 l 549 951 l 538 911 l 493 921 l 458 943 l 447 944 l 381 985 l 247 907 l 232 910 "},"ü":{"ha":782,"x_min":0,"x_max":0,"o":"m 525 29 l 542 40 l 536 68 l 524 215 l 501 165 l 490 126 l 454 56 l 454 50 l 431 11 l 407 0 l 363 0 l 293 -7 l 268 0 l 119 86 l 61 142 l 43 193 l 71 743 l 42 772 l 42 790 l 89 782 l 164 761 l 239 722 l 263 679 l 263 635 l 249 615 l 257 586 l 250 549 l 250 514 l 246 488 l 246 460 l 233 301 l 233 197 l 228 176 l 228 135 l 297 104 l 382 51 l 519 415 l 519 564 l 507 696 l 501 711 l 501 751 l 617 751 l 690 736 l 710 718 l 717 696 l 658 696 l 669 683 l 669 657 l 676 592 l 676 494 l 682 475 l 682 374 l 700 188 l 710 143 l 710 42 l 740 29 l 740 0 l 594 -18 l 549 -8 m 226 986 l 215 1022 l 236 1067 l 278 1067 l 306 1035 l 354 999 l 354 949 l 324 915 l 294 915 l 265 933 m 472 942 l 454 956 l 442 975 l 425 994 l 425 1035 l 442 1054 l 472 1054 l 549 1011 l 567 981 l 567 946 l 500 911 "},"ý":{"ha":840,"x_min":0,"x_max":0,"o":"m 261 -19 l 261 -47 l 286 -62 l 318 -79 l 418 -89 l 499 -61 l 524 -11 l 528 38 l 532 40 l 532 54 l 538 89 l 538 192 l 532 221 l 532 261 l 542 282 l 532 282 l 444 208 l 393 200 l 303 221 l 193 268 l 161 278 l 138 303 l 129 532 l 138 732 l 131 772 l 42 779 l 69 793 l 222 840 l 351 828 l 331 807 l 314 799 l 331 738 l 331 703 l 339 682 l 331 539 l 331 372 l 310 331 l 310 313 l 431 253 l 567 364 l 567 428 l 572 483 l 582 749 l 525 760 l 538 772 l 572 788 l 669 793 l 786 793 l 799 782 l 751 758 l 719 749 l 739 656 l 739 642 l 746 594 l 739 483 l 725 440 l 725 179 l 704 158 l 675 103 l 614 13 l 593 -28 l 579 -49 l 543 -139 l 503 -160 l 476 -160 l 435 -153 l 365 -153 l 344 -139 l 219 -104 l 197 -81 l 207 -43 l 207 -14 l 285 86 l 322 106 l 396 76 l 415 28 l 410 19 l 349 7 l 325 -26 l 315 -47 l 275 -22 l 321 24 l 310 33 l 292 33 l 263 -11 m 428 1050 l 472 1050 l 524 1021 l 533 990 l 401 925 l 315 907 l 306 931 "},"ÿ":{"ha":840,"x_min":0,"x_max":0,"o":"m 261 -19 l 261 -47 l 286 -62 l 318 -79 l 418 -89 l 499 -61 l 524 -11 l 528 38 l 532 40 l 532 54 l 538 89 l 538 192 l 532 221 l 532 261 l 542 282 l 532 282 l 444 208 l 393 200 l 303 221 l 193 268 l 161 278 l 138 303 l 129 532 l 138 732 l 131 772 l 42 779 l 69 793 l 222 840 l 351 828 l 331 807 l 314 799 l 331 738 l 331 703 l 339 682 l 331 539 l 331 372 l 310 331 l 310 313 l 431 253 l 567 364 l 567 428 l 572 483 l 582 749 l 525 760 l 538 772 l 572 788 l 669 793 l 786 793 l 799 782 l 751 758 l 719 749 l 739 656 l 739 642 l 746 594 l 739 483 l 725 440 l 725 179 l 704 158 l 675 103 l 614 13 l 593 -28 l 579 -49 l 543 -139 l 503 -160 l 476 -160 l 435 -153 l 365 -153 l 344 -139 l 219 -104 l 197 -81 l 207 -43 l 207 -14 l 285 86 l 322 106 l 396 76 l 415 28 l 410 19 l 349 7 l 325 -26 l 315 -47 l 275 -22 l 321 24 l 310 33 l 292 33 l 263 -11 m 256 986 l 244 1022 l 265 1067 l 307 1067 l 335 1035 l 383 999 l 383 949 l 353 915 l 324 915 l 294 933 m 501 942 l 483 956 l 471 975 l 454 994 l 454 1035 l 471 1054 l 501 1054 l 578 1011 l 596 981 l 596 946 l 529 911 "},"Œ":{"ha":932,"x_min":0,"x_max":0,"o":"m 249 1103 l 635 1118 l 849 1088 l 858 1076 l 858 961 l 853 918 l 853 863 l 811 846 l 761 879 l 761 1000 l 728 1032 l 663 1051 l 656 1039 l 676 1000 l 676 956 l 669 931 l 669 897 l 642 782 l 650 758 l 650 640 l 669 631 l 708 631 l 722 719 l 728 719 l 797 742 l 814 724 l 800 668 l 800 560 l 788 369 l 749 354 l 703 369 l 696 407 l 696 542 l 682 593 l 656 593 l 656 508 l 643 458 l 643 439 l 636 363 l 644 240 l 636 158 l 624 119 l 624 89 l 725 111 l 799 182 l 819 279 l 819 292 l 839 311 l 883 331 l 890 325 l 876 286 l 876 107 l 839 89 l 774 89 l 735 69 l 446 -14 l 371 -14 l 322 -3 l 215 57 l 126 128 l 90 185 l 74 264 l 74 304 l 42 750 l 68 849 l 78 899 l 186 1051 m 376 22 l 408 22 l 485 61 l 474 101 l 440 567 l 440 776 l 433 867 l 433 1057 l 368 1064 l 363 1069 l 307 1069 l 300 1035 l 281 1007 l 232 882 l 221 426 l 235 292 l 235 104 l 256 83 "},"œ":{"ha":982,"x_min":0,"x_max":0,"o":"m 488 57 l 476 71 l 383 -26 l 349 -26 l 294 -6 l 92 122 l 71 168 l 42 474 l 57 629 l 85 690 l 199 814 l 233 828 l 331 828 l 467 779 l 476 769 l 481 775 l 511 797 l 603 831 l 664 831 l 792 801 l 857 753 l 901 568 l 926 508 l 914 474 l 883 464 l 681 436 l 625 436 l 597 422 l 611 343 l 599 281 l 613 240 l 613 186 l 640 68 l 654 68 l 771 144 l 835 256 l 819 275 l 801 310 l 779 329 l 744 297 l 714 258 l 763 261 l 757 240 l 681 228 l 651 247 l 669 281 l 707 315 l 736 354 l 771 367 l 844 367 l 883 349 l 899 322 l 929 313 l 940 303 l 863 169 l 819 132 l 757 92 l 714 51 l 650 22 l 588 22 l 529 33 m 364 17 l 414 72 l 435 129 l 411 224 l 379 406 l 379 418 l 365 601 l 382 663 l 418 711 l 432 724 l 415 742 l 300 788 l 256 797 l 247 769 l 228 750 l 210 690 l 189 643 l 199 554 l 199 404 l 217 247 l 217 111 l 258 68 m 753 476 l 738 585 l 732 601 l 732 688 l 726 699 l 713 756 l 611 763 l 568 717 l 550 682 l 550 653 l 563 625 l 582 521 l 582 493 l 588 469 l 588 457 "},"Ÿ":{"ha":890,"x_min":0,"x_max":0,"o":"m 388 51 l 388 63 l 394 76 l 388 92 l 340 629 l 340 756 l 319 797 l 136 1067 l 60 1067 l 42 1086 l 231 1138 l 275 1138 l 335 1096 l 374 1044 l 414 1003 l 442 947 l 500 847 l 513 847 l 611 1024 l 633 1053 l 667 1124 l 592 1131 l 578 1144 l 801 1171 l 849 1153 l 831 1144 l 760 1124 l 742 1094 l 701 1053 l 694 1031 l 550 763 l 524 724 l 524 163 l 514 78 l 575 63 l 536 42 l 428 21 l 326 21 l 301 33 m 281 1257 l 269 1293 l 290 1338 l 332 1338 l 360 1306 l 408 1269 l 408 1219 l 378 1186 l 349 1186 l 319 1204 m 526 1213 l 508 1226 l 496 1246 l 479 1265 l 479 1306 l 496 1325 l 526 1325 l 603 1282 l 621 1251 l 621 1217 l 554 1182 "},"‘":{"ha":199,"x_min":0,"x_max":0,"o":"m 128 1151 l 128 1113 l 157 781 l 117 715 l 89 721 l 42 767 l 42 800 l 53 853 l 82 1057 l 82 1106 l 94 1144 l 94 1192 l 110 1204 l 121 1192 "},"’":{"ha":199,"x_min":0,"x_max":0,"o":"m 71 768 l 71 807 l 42 1139 l 82 1204 l 110 1199 l 157 1153 l 157 1119 l 146 1067 l 117 863 l 117 814 l 104 775 l 104 728 l 89 715 l 78 728 "},"‚":{"ha":199,"x_min":0,"x_max":0,"o":"m 71 -99 l 71 -60 l 42 272 l 82 338 l 110 332 l 157 286 l 157 253 l 146 200 l 117 -4 l 117 -53 l 104 -92 l 104 -139 l 89 -151 l 78 -139 "},"“":{"ha":367,"x_min":0,"x_max":0,"o":"m 296 1151 l 296 1113 l 325 781 l 285 715 l 257 721 l 210 767 l 210 800 l 221 853 l 250 1057 l 250 1106 l 263 1144 l 263 1192 l 278 1204 l 289 1192 m 117 1150 l 128 1118 l 164 844 l 144 744 l 89 726 l 42 772 l 42 806 l 53 858 l 82 1063 l 92 1099 l 89 1181 "},"”":{"ha":367,"x_min":0,"x_max":0,"o":"m 71 768 l 71 807 l 42 1139 l 82 1204 l 110 1199 l 157 1153 l 157 1119 l 146 1067 l 117 863 l 117 814 l 104 775 l 104 728 l 89 715 l 78 728 m 250 769 l 239 801 l 203 1075 l 222 1175 l 278 1193 l 325 1147 l 325 1114 l 314 1061 l 285 857 l 275 821 l 278 739 "},"„":{"ha":367,"x_min":0,"x_max":0,"o":"m 71 -129 l 71 -90 l 42 242 l 82 307 l 110 301 l 157 256 l 157 222 l 146 169 l 117 -35 l 117 -83 l 104 -122 l 104 -169 l 89 -182 l 78 -169 m 250 -128 l 239 -96 l 203 178 l 222 278 l 278 296 l 325 250 l 325 217 l 314 164 l 285 -40 l 275 -76 l 278 -158 "},"‹":{"ha":350,"x_min":0,"x_max":0,"o":"m 235 746 l 282 654 l 242 568 l 128 375 l 261 242 l 308 169 l 264 100 l 211 139 l 147 219 l 42 331 l 42 386 l 76 483 l 185 654 "},"›":{"ha":350,"x_min":0,"x_max":0,"o":"m 165 654 l 274 483 l 308 386 l 308 331 l 203 219 l 139 139 l 86 100 l 42 169 l 89 242 l 222 375 l 108 568 l 68 654 l 115 746 "},"€":{"ha":663,"x_min":0,"x_max":0,"o":"m 122 556 l 122 582 l 108 699 l 113 729 l 67 733 l 44 725 l 42 778 l 119 775 l 125 813 l 142 829 l 201 929 l 338 1024 l 400 1054 l 468 994 l 518 924 l 539 913 l 547 954 l 593 1054 l 621 1054 l 621 1001 l 588 815 l 571 807 l 528 840 l 474 908 l 447 961 l 426 983 l 381 968 l 304 872 l 317 768 l 483 764 l 483 694 l 324 708 l 335 622 l 335 556 l 439 556 l 428 481 l 347 485 l 347 415 l 354 342 l 354 308 l 369 139 l 358 64 l 381 75 l 533 190 l 544 336 l 606 407 l 594 301 l 594 229 l 581 175 l 554 156 l 481 89 l 394 29 l 299 -15 l 182 22 l 122 356 l 122 499 l 67 503 l 53 556 "}}}
